<?xml version="1.0" standalone="no"?>
<!DOCTYPE svg PUBLIC "-//W3C//DTD SVG 1.1//EN" "http://www.w3.org/Graphics/SVG/1.1/DTD/svg11.dtd" >
<svg xmlns="http://www.w3.org/2000/svg">
<metadata>
This is a custom SVG font generated by IcoMoon.
<iconset grid="14"></iconset>
</metadata>
<defs>
<font id="IconsMoon" horiz-adv-x="448" >
<font-face units-per-em="448" ascent="384" descent="-64" />
<missing-glyph horiz-adv-x="448" />
<glyph class="hidden" unicode="&#xf1b6;" d="M0,384L 448 -64L0 -64 z" horiz-adv-x="0" />
<glyph unicode="&#x1c0;" d="M 336-64q-22.313,0 -43.75,9.188t-41.344,26.469t-35.438,34.781t-33.469,41.563q-7.438,10.063 -18.375,21.656t-28.438,26.906t-38.5,25.375t-40.688,10.063l-42,0 q-5.688,0 -9.844,4.156t-4.156,9.844t 4.156,9.844t 9.844,4.156l 42,0 q 16.188,0 24.281-0.219t 22.969-1.094t 23.844-3.063t 21.875-6.125t 22.313-9.844t 19.688-14.875t 19.031-20.781q 10.938-14.875 34.781-35.438t 35.219-20.563q 28,0 28,28l0,56 
q0,11.375 8.094,19.688t 19.906,8.313l 84,0 q 11.375,0 19.688-8.313t 8.313-19.688l0-84 q0-46.375 -32.813-79.188t-79.188-32.813zM 392,272q0-15.75 3.938-36.313q 0.438-2.188 7.875-17.719t 10.938-29.969l-25.375,0 q-3.938,18.375 -11.375,28q-10.063,10.5 -12.031,20.781t-1.969,35.219q0,35 16.406,59.5t 39.594,24.5q-16.625-6.563 -22.313-28t-5.688-56zM 308,294.312q0-16.625 3.938-38.938q 21.875-24.5 23.625-67.375l-27.563,0 
q0,28 -3.938,33.25q-24.063,27.125 -24.063,73.063q0,37.188 16.406,63.438t 39.594,26.25q 6.563,0 14-3.063q-18.375-7.875 -30.188-31.719t-11.813-54.906z" data-tags="pipe" />
<glyph unicode="&#x2040;" d="M 307.125,357.312l-54.25-62.563l 52.938-249.375q 2.625-7 3.5-9.844t 0.219-6.344t-3.719-6.563l-68.25-81.813q-4.375-4.813 -11.156-4.813t-11.594,4.813l-67.813,81.813q-4.375,5.688 -4.156,9.406t 4.156,13.344l 52.938,249.813l-53.813,62.125q-5.688,5.25 -2.844,15.969t 12.469,10.719l 142.188,0 q 9.625,0 12.031-10.719t-2.844-15.969z" data-tags="tie" />
<glyph unicode="&#x2da;" d="M 420,132q0-39.813 -15.531-76.125t-41.781-62.563t-62.563-41.781t-76.125-15.531t-76.125,15.531t-62.563,41.781t-41.781,62.563t-15.531,76.125q0,71.313 45.281,125.344t 113.969,67.156l-47.25,31.5l 56,28l 56,0 l 56-28l-47.25-31.5q 68.688-13.125 113.969-67.156t 45.281-125.344zM 224,272q-38.063,0 -70.219-18.813t-50.969-50.969t-18.813-70.219
t 18.813-70.219t 50.969-50.969t 70.219-18.813t 70.219,18.813t 50.969,50.969t 18.813,70.219t-18.813,70.219t-50.969,50.969t-70.219,18.813z" data-tags="ring" />
<glyph unicode="&#x2020;" d="M 443.625-37.313l-22.313-22.313q-4.375-4.375 -10.719-4.375t-11.156,4.375l-143.5,143.938l-33.688-34.125q-2.625-2.188 -6.125-2.188t-5.688,2.188l-12.25,11.813q-2.188,2.625 -2.188,6.125t 2.188,6.125l 12.688,12.688l-98.875,87.063q-32.813,32.813 -70.438,100.406t-41.563,109.594q 4.813-5.688 11.813-12.688t 16.406-15.969t 13.781-13.344q 31.938-31.938 67.375-54.031t 43.313-14.219l 0.219,0.219t 0.219,0.656l 122.938-122.938l 5.688,6.125q 2.625,2.188 6.125,2.188
t 6.125-2.188l 11.813-12.25q 2.625-2.188 2.625-5.688t-2.625-6.125l-5.688-5.688l 143.5-143.5q 4.375-4.813 4.375-11.156t-4.375-10.719z" data-tags="dagger" />
<glyph unicode="&#x20ac;" d="M 392.219,216q-11.594,0 -19.906,8.094t-8.313,19.906q-9.188,36.313 -41.125,60.156t-70.875,23.844q-38.5,0 -68.688-23.625t-39.813-60.375l 80.5,0 q 11.813,0 19.906-8.313t 8.094-19.906t-8.094-19.688t-19.906-8.094l-84,0 l0-56 l 84,0 q 11.813,0 19.906-8.313t 8.094-19.906t-8.094-19.688t-19.906-8.094l-80.5,0 q 9.625-36.75 39.813-60.375t 68.688-23.625q 38.938,0 70.875,23.844
t 41.125,60.156q0,11.375 8.313,19.688t 19.906,8.313t 19.688-8.313t 8.094-19.688q0-10.063 -6.563-17.938q-15.313-53.375 -59.938-87.719t-101.5-34.344q-62.125,0 -108.719,40.031t-56.656,99.969l-30.625,0 q-11.813,0 -19.906,8.094t-8.094,19.688t 8.094,19.906t 19.906,8.313l 28,0 l0,56 l-28,0 q-11.813,0 -19.906,8.094t-8.094,19.688t 8.094,19.906t 19.906,8.313l 30.625,0 q 10.063,59.938 56.656,99.969
t 108.719,40.031q 56.875,0 101.5-34.344t 59.938-87.719q 6.563-7.875 6.563-17.938q0-11.813 -8.094-19.906t-19.688-8.094z" data-tags="euro" />
<glyph unicode="&#x21b8;" d="M 439.469,140.969q-8.531-8.531 -20.563-8.531t-20.344,8.313l-6.563,6.563l0-183.313 q0-11.375 -8.094-19.688t-19.906-8.313l-84,0 l0,126 q0,5.688 -4.156,9.844t-9.844,4.156l-84,0 q-5.688,0 -9.844-4.156t-4.156-9.844l0-126 l-84,0 q-11.813,0 -19.906,8.313t-8.094,19.688l0,183.313 l-6.563-6.563q-8.313-8.313 -20.344-8.313t-20.563,8.531t-8.531,20.563t 8.313,20.344l 194.25,194.25
q 8.75,8.75 21.438,8.313q 12.688,0.438 21.438-8.313l 194.25-194.25q 8.313-8.313 8.313-20.344t-8.531-20.563z" data-tags="home" />
<glyph unicode="&#x22d4;" d="M 433.344-49.344q-11.156-11.156 -25.594-14t-30.844,4.156t-31.719,23.625l-126.875,148.75q-28-13.125 -59.719-7.656t-54.906,28.656l-96.688,97.125q-7,6.563 -7,16.406t 7,16.844t 16.844,7t 16.406-7l 102.375-102.375q 16.625,3.938 31.938,13.125l-111.563,111.563q-7,7 -7,16.844t 7,16.844t 16.625,7t 16.625-7l 112-111.563q 9.188,14.875 13.125,31.5l-102.375,102.375
q-7,7 -7,16.844t 6.781,16.625t 16.625,6.781t 16.844-7l 97.563-96.25q 22.75-23.188 28.219-55.125t-7.656-59.938l 148.75-126q 16.625-14.875 23.844-31.5t 4.375-31.063t-14-25.594z" data-tags="fork" />
<glyph unicode="&#x2407;" d="M 420-36l-147.875,0 q-7.438-12.688 -20.125-20.344t-28-7.656t-28,7.656t-20.125,20.344l-147.875,0 q-11.813,0 -19.906,8.313t-8.094,19.688l0,28 q 23.188,0 39.594,32.813t 16.406,79.188l0,56 q0,62.125 40.031,108.719t 99.969,56.656l0,2.625 q0,11.813 8.313,19.906t 19.688,8.094t 19.688-8.094t 8.313-19.906l0-2.625 q 59.938-10.063 99.969-56.656t 40.031-108.719l0-56 q0-46.375 16.406-79.188
t 39.594-32.813l0-28 q0-11.375 -8.094-19.688t-19.906-8.313z" data-tags="bell" />
<glyph unicode="&#xf487;" d="M 378,188q-19.25,0 -37.188-5.688t-32.375-14l-28.875-16.625t-32.375-14t-37.188-5.688q-42.438,0 -70,35.438l0,188.563 q 7.875-10.063 15.969-16.188t 17.719-8.531t 15.75-2.844t 17.063-0.438l 3.5,0 q 19.25,0 37.188,5.688t 32.375,14l 28.875,16.625t 32.375,14t 37.188,5.688q 17.5,0 35.656-10.5t 34.344-31.5l0-182 q-10.063,10.063 -19.031,16.188t-18.156,8.531t-15.313,2.844t-17.5,0.438zM 168-36.219q0-11.594 -8.094-19.688
t-19.906-8.094l-112,0 q-11.375,0 -19.688,8.094t-8.313,19.688t 8.313,19.906t 19.688,8.313l 28,0 l0,364 q0,11.375 8.094,19.688t 19.906,8.313t 19.906-8.094t 8.094-19.906l0-364 l 28,0 q 11.813,0 19.906-8.313t 8.094-19.906z" data-tags="uniF487" />
<glyph unicode="&#xf476;" d="M 224-64q-60.813,0 -112.438,29.969t-81.594,81.594t-29.969,112.438t 29.969,112.438t 81.594,81.594t 112.438,29.969t 112.438-29.969t 81.594-81.594t 29.969-112.438t-29.969-112.438t-81.594-81.594t-112.438-29.969zM 336,174q0,5.688 -4.156,9.844t-9.844,4.156l-70,0 l0,70 q0,5.688 -4.156,9.844t-9.844,4.156l-28,0 q-5.688,0 -9.844-4.156t-4.156-9.844l0-70 
l-70,0 q-5.688,0 -9.844-4.156t-4.156-9.844l0-28 q0-5.688 4.156-9.844t 9.844-4.156l 70,0 l0-70 q0-5.688 4.156-9.844t 9.844-4.156l 28,0 q 5.688,0 9.844,4.156t 4.156,9.844l0,70 l 70,0 q 5.688,0 9.844,4.156t 4.156,9.844l0,28 z" data-tags="uniF476" />
<glyph unicode="&#xf477;" d="M 224-64q-60.813,0 -112.438,29.969t-81.594,81.594t-29.969,112.438t 29.969,112.438t 81.594,81.594t 112.438,29.969t 112.438-29.969t 81.594-81.594t 29.969-112.438t-29.969-112.438t-81.594-81.594t-112.438-29.969zM 336,174q0,5.688 -4.156,9.844t-9.844,4.156l-196,0 q-5.688,0 -9.844-4.156t-4.156-9.844l0-28 q0-5.688 4.156-9.844t 9.844-4.156l 196,0 
q 5.688,0 9.844,4.156t 4.156,9.844l0,28 z" data-tags="uniF477" />
<glyph unicode="&#x263a;" d="M 224-64q-45.5,0 -87.063,17.719t-71.531,47.688t-47.688,71.531t-17.719,87.063t 17.719,87.063t 47.688,71.531t 71.531,47.688t 87.063,17.719t 87.063-17.719t 71.531-47.688t 47.688-71.531t 17.719-87.063t-17.719-87.063t-47.688-71.531t-71.531-47.688t-87.063-17.719zM 126,272q-17.5,0 -29.75-16.406t-12.25-39.594t 12.25-39.594t 29.75-16.406t 29.75,16.406t 12.25,39.594
t-12.25,39.594t-29.75,16.406zM 322,272q-17.5,0 -29.75-16.406t-12.25-39.594t 12.25-39.594t 29.75-16.406t 29.75,16.406t 12.25,39.594t-12.25,39.594t-29.75,16.406zM 350,104l-252,0 q-5.688,0 -9.844-4.156t-4.156-9.844q 17.5-49.438 51.406-73.719t 88.156-24.281t 88.594,24.281t 51.844,73.719q0,5.688 -4.156,9.844t-9.844,4.156zM 223.563,20q-72.625,0 -97.563,49.875
q0,2.625 2.406,4.375t 5.906,1.75l 179.375,0 q 3.5,0 5.906-1.75t 2.406-4.375q-24.938-49.875 -98.438-49.875z" data-tags="smile" />
<glyph unicode="&#x262f;" d="M 224-64q-45.5,0 -87.063,17.719t-71.531,47.688t-47.688,71.531t-17.719,87.281t 17.719,87.063t 47.688,71.313t 71.531,47.906t 87.063,17.938t 87.063-17.938t 71.531-47.906t 47.688-71.313t 17.719-87.063t-17.719-87.281t-47.688-71.531t-71.531-47.688t-87.063-17.719zM 224,272q-11.375,0 -19.688-8.094t-8.313-19.688t 8.094-19.906t 19.906-8.313t 19.906,8.313
t 8.094,19.906t-8.313,19.688t-19.688,8.094zM 224,160q-35,0 -59.5,24.719t-24.5,59.5t 24.5,59.281t 59.5,24.5q-45.5,0 -84.219-22.313t-61.25-61.031t-22.531-84.438t 22.531-84.438t 61.25-61.25t 84.219-22.531q 35,0 59.5,24.719t 24.5,59.5t-24.5,59.281t-59.5,24.5zM 224.219,48q-11.594,0 -19.906,8.313t-8.313,19.906t 8.313,19.688t 19.906,8.094t 19.688-8.094
t 8.094-19.688t-8.094-19.906t-19.688-8.313z" data-tags="yinyang" />
<glyph unicode="&#xf401;" d="M 420,188l-105.875-17.5q 21.875-29.75 21.875-66.5q0-46.375 -32.813-79.188t-79.188-32.813q-37.188,0 -66.5,21.656t-40.25,56.219l-35.875-63.438q-6.563-11.375 -19.688-14q-2.625-0.438 -4.813-0.438l-0.438,0 l-0.438,0 l-28,0 q-11.375,0 -19.688,8.313t-8.313,19.906t 8.313,19.688t 19.688,8.094l 11.375,0 l 48.563,84.875l-3.938-0.875q-31.938-1.75 -57.969,24.063t-26.031,59.938q0,34.563 23.625,60.156t 55.125,23.844l 5.25,0 l0,14 
q0,5.688 4.156,9.844t 9.844,4.156t 9.844-4.156t 4.156-9.844l0-14 l 308,0 q 11.813,0 19.906-16.406t 8.094-39.594q0-22.313 -7.875-37.188t-20.125-18.813zM 224,160q-23.188,0 -39.594-16.406t-16.406-39.594t 16.406-39.594t 39.594-16.406t 39.594,16.406t 16.406,39.594t-16.406,39.594t-39.594,16.406zM 223.781,76q-11.594,0 -19.688,8.313t-8.094,19.906t 8.094,19.688
t 19.688,8.094t 19.906-8.094t 8.313-19.688t-8.313-19.906t-19.906-8.313z" data-tags="cannon" />
<glyph unicode="&#xf402;" d="M 448,384zM 224,384l0,0 l0,0 zM 336,356q 46.375,0 79.188,8.094t 32.813,19.906l0-112 l-448,0 l0,112 l0,0 q0-11.813 32.813-19.906t 79.188-8.094t 79.188,8.094t 32.813,19.906q0-11.813 32.813-19.906t 79.188-8.094zM 224-64q-41.125,11.813 -73.719,28.656t-54.688,34.344t-38.719,42.438t-26.031,45.5t-15.969,50.969t-9.406,51.625t-5.469,54.469l 448,0 
q-2.625-33.25 -5.469-54.469t-9.406-51.625t-15.969-50.969t-26.031-45.5t-38.719-42.438t-54.688-34.344t-73.719-28.656z" data-tags="route" />
<glyph unicode="&#xf405;" d="M 236.25-5.813q 33.25-33.688 41.563-58.188l-107.625,0 q 8.313,24.5 41.125,58.188q-21.438,5.688 -48.781,29.313t-50.75,54.906t-39.594,68.906t-16.188,68.688q0,45.5 22.531,84.219t 61.25,61.25t 84.219,22.531t 84.219-22.531t 61.25-61.25t 22.531-84.219q0-31.063 -16.188-68.688t-39.594-68.906t-50.75-54.906t-49.219-29.313zM 167.563,298.687q-16.625,4.813 -32.375-7t-21-33.25
q-6.125-21 -2.188-73.719t 14-52.719q 6.125,0 10.063,14.219t 8.094,32.156t 9.844,23.625q 2.188,2.188 8.75,8.531t 10.281,10.281t 8.75,9.406t 8.094,10.5t 3.938,9.844q 10.063,38.063 -26.25,48.125z" data-tags="baloon" />
<glyph unicode="&#xf40a;" d="M 439.688,335.875l-134.75-134.75q 8.313-22.313 -3.938-34.563t-34.563-3.938l-0.438-0.438q 12.688-20.563 13.344-41.563t-7.656-38.063t-23.625-31.938q-38.938-38.938 -56-114.625q-20.125,10.063 -44.188,26.25q-4.813,21.875 1.75,43.313t 22.75,36.313q-20.125-6.563 -34.563-21.875t-19.688-35.438q-21.438,17.063 -37.188,32.375q-0.875,0.875 -2.406,2.625t-1.969,2.625q 14.875,14.875 21,33.688q-15.313-13.563 -34.125-19.688q-13.563,15.313 -24.063,29.313q 19.25,6.125 34.125,20.344
t 21,33.906q-14-15.75 -34.125-22.531t-41.125-3.281q-11.813,18.813 -19.25,34.125q 75.688,17.5 114.625,56q 14.875,15.313 31.938,23.625t 38.063,7.656t 41.563-13.344l 0.438,0.438q-8.313,22.313 3.938,34.563t 34.563,3.938l 134.75,134.75q 8.313,8.313 19.906,8.313t 19.906-8.313t 8.313-19.906t-8.313-19.906z" data-tags="broom" />
<glyph unicode="&#xf40b;" d="M 184.406,63.094q-16.406,16.406 -16.406,39.594t 16.625,39.813l 238,158.375l-158.813-238q-16.188-16.188 -39.594-16.188t-39.813,16.406zM 224,299.562q-39.813,0 -76.344-15.75t-62.781-42t-41.781-62.563t-15.531-76.125q0-46.375 21-88.375l-24.5-12.25q-24.063,47.688 -24.063,100.188q0,45.938 17.719,87.281t 47.688,71.313t 71.531,47.688t 87.063,17.719q 70.438,0 128.188-40.25l-24.938-16.625
q-47.688,29.75 -103.25,29.75zM 408.188,230.437q 39.813-57.75 39.813-127.75q0-52.5 -24.063-100.188l-24.5,12.688q 21,41.563 21,87.938q0,54.688 -28.875,102.375z" data-tags="speed" />
<glyph unicode="&#xf40c;" d="M 224-64q-45.5,0 -87.063,17.719t-71.531,47.688t-47.688,71.531t-17.719,87.063t 17.719,87.063t 47.688,71.531t 71.531,47.688t 87.063,17.719t 87.063-17.719t 71.531-47.688t 47.688-71.531t 17.719-87.063t-17.719-87.063t-47.688-71.531t-71.531-47.688t-87.063-17.719zM 298.813,219.937q0,30.625 -21.875,52.5t-52.938,21.875t-52.938-21.875t-21.875-52.5l0-89.688 q0-6.125 -4.375-10.5
t-10.5-4.375t-10.5,4.375t-4.375,10.5l0,44.625 l-59.938,0 l0-44.625 q0-31.063 21.875-52.938t 52.938-21.875t 52.938,21.875t 21.875,52.938l0,89.688 q0,6.125 4.375,10.5t 10.5,4.375t 10.5-4.375t 4.375-10.5l0-15.313 l 29.75-29.75l 30.188,29.75l0,15.313 zM 328.563,174.875l0-44.625 q0-6.125 -4.375-10.5t-10.5-4.375t-10.5,4.375t-4.375,10.5l0,44.625 l-30.188-29.75l-29.75,29.75l0-44.625 q0-31.063 21.875-52.938t 52.719-21.875t 52.719,21.875t 21.875,52.938l0,44.625 l-59.5,0 z
" data-tags="stumbleupon" />
<glyph unicode="&#xf40d;" d="M 336-36l-28,0 l0-14 q0-5.688 -4.156-9.844t-9.844-4.156t-9.844,4.156t-4.156,9.844l0,14 l-112,0 l0-14 q0-5.688 -4.156-9.844t-9.844-4.156t-9.844,4.156t-4.156,9.844l0,14 l-28,0 q-11.375,0 -19.688,8.313t-8.313,19.688l0,196 q0,11.813 8.094,19.906t 19.906,8.094l 224,0 q 11.813,0 19.906-8.094t 8.094-19.906l0-196 q0-11.375 -8.094-19.688t-19.906-8.313zM 140,174
q0,5.688 -4.156,9.844t-9.844,4.156t-9.844-4.156t-4.156-9.844l0-28 q0-5.688 4.156-9.844t 9.844-4.156t 9.844,4.156t 4.156,9.844l0,28 zM 336,244l-224,0 q-11.375,0 -19.688,8.313t-8.313,19.688l0,84 q0,11.813 8.313,19.906t 19.688,8.094l 224,0 q 11.813,0 19.906-8.094t 8.094-19.906l0-84 q0-11.375 -8.094-19.688t-19.906-8.313zM 140,314q0,5.688 -4.156,9.844t-9.844,4.156
t-9.844-4.156t-4.156-9.844l0-28 q0-5.688 4.156-9.844t 9.844-4.156t 9.844,4.156t 4.156,9.844l0,28 z" data-tags="fridge" />
<glyph unicode="&#xf412;" d="M 252,132q-56,40.688 -56,97.563q0,21.875 7.438,42.438l-7.875,7.875l-116.813-116.813l 90.125-171.063l 111.125,0 q 11.375,0 19.688-8.313t 8.313-19.906t-8.313-19.688t-19.688-8.094l-224,0 q-11.375,0 -19.688,8.094t-8.313,19.688t 8.313,19.906t 19.688,8.313l 81.375,0 l-79.625,150.063l-5.688-5.688q-3.938-4.375 -9.844-4.375t-10.063,4.156t-4.156,10.063t 3.938,9.844l 12.25,12.25l-14,26.688q-3.063,4.813 -1.531,10.5t 6.563,8.75t 10.5,1.531
t 8.531-6.781l 10.5-20.125l 112,111.563q-10.5,15.75 -8.75,35t 15.313,32.813q 15.75,15.75 38.063,15.75t 38.063-15.75l 20.125-20.125q 21,7.438 42.438,7.438q 57.313,0 98-56z" data-tags="desklamp" />
<glyph unicode="&#xf413;" d="M 434.438,30.937l-81.375-81.375q-13.563-13.563 -32.594-13.563t-32.594,13.563l-274.313,274.313q-13.563,13.563 -13.563,32.594t 13.563,32.594l 12.25,12.25l-20.563,20.563q-5.25,5.25 -5.25,12.688t 5.25,12.688l 31.5,31.5q 5.25,5.25 12.688,5.25t 12.688-5.25l 20.563-20.563l 12.25,12.25q 13.563,13.563 32.594,13.563t 32.594-13.563l 274.313-274.313q 13.563-13.563 13.563-32.594t-13.563-32.594zM 168,279l-21,21l-21-21l-21,21l-21-21
l 21-21l-21-21l 21-21l 21,21l 21-21l 21,21l-21,21zM 409.938,83.437l-163.188,163.188l-109.813-109.375l 163.625-163.188q 10.5-9.625 24.938-8.313t 24.938,11.813l 56,56q 10.063,10.5 11.594,24.938t-8.094,24.938zM 280,40.562l 63.438,63.438l 21-21.438l-63.438-63z" data-tags="aaabattery" />
<glyph unicode="&#xf416;" d="M 420,99.187q-4.813,4.813 -11.813,4.813t-11.813-4.813t-4.813-11.594t 4.813-11.594l 25.813-25.375l-88.813-88.813l-25.375,25.375q-4.813,4.813 -11.594,4.813t-11.813-4.813t-5.031-11.375t 4.813-11.375l 8.313-8.313l-20.125-20.125l-272.563,272.563l 20.125,20.125l 7.875-7.875q 4.813-4.813 11.813-4.813t 11.813,4.813t 4.813,11.594t-4.813,11.594l-25.813,25.375l 88.813,88.813l 25.375-25.375q 4.813-4.813 11.594-4.813t 11.594,4.813t 4.813,11.594t-4.813,11.594
l-7.875,7.875l 20.125,20.125l 272.563-272.563l-20.125-20.125zM 360.5,72.719q-3.5,3.281 -8.313,3.281t-7.875-3.5l-8.75-8.313l-39.375,39.375l 8.313,8.75q 3.5,3.5 3.5,8.313t-3.5,8.094t-8.313,3.281t-7.875-3.5l-8.75-8.313l-29.75,29.75q 2.188,4.813 2.188,10.063q0,11.375 -8.094,19.688t-19.906,8.313q-5.25,0 -10.063-2.188l-29.75,29.75l 8.313,8.75q 3.5,3.063 3.5,7.875t-3.281,8.313t-8.094,3.5t-8.313-3.5l-8.313-8.313l-39.813,39.375l 8.75,8.313q 3.063,3.5 3.063,8.313
t-3.281,8.313t-8.094,3.5t-8.313-3.5l-32.813-32.813q-3.5-3.5 -3.5-8.313t 3.5-8.094t 8.313-3.281t 8.313,3.063l 8.313,8.75l 39.375-39.375l-8.313-8.75q-3.5-3.5 -3.5-8.313t 3.5-8.094t 8.313-3.281t 7.875,3.5l 8.75,8.313l 29.75-29.75q-2.188-4.813 -2.188-10.063q0-11.813 8.313-19.906t 19.688-8.094q 5.25,0 10.063,1.75l 29.75-29.313l-8.313-8.75q-3.5-3.063 -3.5-7.875t 3.281-8.313t 8.094-3.5t 8.313,3.5l 8.75,8.313l 39.375-39.375l-8.313-8.75
q-3.5-3.063 -3.5-7.875t 3.281-8.313t 8.094-3.5t 8.313,3.5l 32.813,32.813q 3.5,3.5 3.5,8.313t-3.5,8.094z" data-tags="razor" />
<glyph unicode="&#xf417;" d="M 416.063-32.063q-31.938-31.938 -76.781-31.938t-76.781,31.938l-230.563,230.563q-31.938,31.938 -31.938,76.781t 31.938,76.781t 76.781,31.938t 76.781-31.938l 230.563-230.563q 31.938-31.938 31.938-76.781t-31.938-76.781zM 224,272q-11.375,0 -30.625,0.438t-26.25,0.438t-16.625-1.969t-16.188-6.781q-9.188,12.688 -9.188,30.844t-5.25,22.531q-10.938,10.938 -26.469,10.938t-26.688-11.156t-11.156-26.688t 10.938-26.469
q 5.25-4.813 13.563-4.813t 19.031-1.094t 20.344-8.531q-4.375-6.563 -6.563-15.75t-2.188-16.406t 0.656-26.031t 0.656-31.5l 112-115.5l0,1.531 l0,1.969 q0,46.375 32.813,79.188t 79.188,32.813l 1.969,0 l 1.531,0 zM 336.219,132q-34.781,0 -59.5-24.719t-24.719-59.5t 24.719-59.281t 59.5-24.5t 59.281,24.5t 24.5,59.281t-24.5,59.5t-59.281,24.719z" data-tags="safetypin" />
<glyph unicode="&#xf418;" d="M 392,272q-23.188,0 -39.594,16.406t-16.406,39.594t 16.406,39.594t 39.594,16.406t 39.594-16.406t 16.406-39.594t-16.406-39.594t-39.594-16.406zM 439.25-13.688l-41.563-41.563q-8.313-8.75 -20.563-8.75t-21,8.75l-207.375,207.375q-8.75,8.75 -8.75,21t 8.75,20.563l 3.938,3.938l-65.625,65.625l-77.438,42q-9.625,9.188 -9.625,22.75t 9.625,23.188l 23.188,23.188q 9.625,9.625 23.188,9.625t 22.75-9.625l 42-77.438
l 65.625-65.625l 3.938,3.938q 8.313,8.75 20.563,8.75t 21-8.75l 207.375-207.375q 8.75-8.75 8.75-21t-8.75-20.563z" data-tags="cricket" />
<glyph unicode="&#xf41b;" d="M 336,160l-308,0 q-11.375,0 -19.688,8.313t-8.313,19.906t 8.313,19.688t 19.688,8.094l 5.25,0 l 78.75,0 q 11.813,0 19.906,8.313t 8.094,19.906t-8.094,19.688t-19.688,8.094t-19.906,8.313t-8.313,19.906t 8.313,19.688t 19.688,8.094q 2.625,0 5.688-0.438q 32.813-2.188 55.563-26.25t 22.75-57.313q0-13.563 -5.25-28l 5.25,0 l 43.313,0 l 96.688,0 q 23.188,0 39.594,16.406t 16.406,39.594t-16.406,39.594t-39.594,16.406t-39.594-16.406
t-16.406-39.594q0-11.375 -8.094-19.688t-19.688-8.313t-19.906,8.313t-8.313,19.688q0,46.375 32.813,79.188t 79.188,32.813t 79.188-32.813t 32.813-79.188t-32.813-79.188t-79.188-32.813zM 28,132l 140,0 q 1.75,0 4.813-0.438q 4.813,0.438 9.188,0.438q 40.688,0 69.344-28.656t 28.656-69.344q0-21 -5.906-38.281t-18.594-30.844t-34.781-21.219t-52.719-7.656q-11.813,0 -19.906,8.313t-8.094,19.906t 8.313,19.688
t 19.688,8.094q 13.563,0 23.406,1.313t 15.969,4.594t 9.625,6.125t 5.031,8.969t 1.75,9.844t 0.219,11.156q0,17.5 -12.25,29.75t-29.75,12.25l-88.375,0 l-65.625,0 q-11.375,0 -19.688,8.313t-8.313,19.906t 8.094,19.688t 19.906,8.094z" data-tags="wind" />
<glyph unicode="&#xf41c;" d="M 252,78.625l0-86.625 l 56,0 q 11.375,0 19.688-8.094t 8.313-19.688t-8.313-19.906t-19.688-8.313l-168,0 q-11.813,0 -19.906,8.313t-8.094,19.906t 8.094,19.688t 19.906,8.094l 56,0 l0,86.625 q-59.938,11.375 -99.969,62.781t-40.031,119.219q0,70.438 42.875,123.375l 97.125,0 l 28-84l-84-28l 84-140l-28,112l 84,28l-28,112l 96.688,0 q 43.313-52.938 43.313-123.375
q0-67.813 -40.031-119.219t-99.969-62.781z" data-tags="breakable" />
<glyph unicode="&#xf41e;" d="M 434-64l-420,0 q-5.688,0 -9.844,4.156t-4.156,9.844l0,308 q0,5.688 4.156,9.844t 9.844,4.156l 92.313,0 l 107.188,107.188l 0.219,0.438l 0.219,0.438q 4.375,3.938 10.063,3.938t 10.063-3.938l 0.219-0.438l 0.219-0.438l 107.188-107.188l 92.313,0 q 5.688,0 9.844-4.156t 4.156-9.844l0-308 q0-5.688 -4.156-9.844t-9.844-4.156zM 224,350.312l-78.313-78.313l 156.625,0 zM 392,216l-336,0 l0-224 l 336,0 l0,224 z" data-tags="pictureframe" />
<glyph unicode="&#xf41f;" d="M 224,48q-60.813,0 -112.438,9.406t-81.594,25.594t-29.969,35.219t 30.406,35t 81.594,25.156l0,37.625 q0,46.375 32.813,79.188t 79.188,32.813t 79.188-32.813t 32.813-79.188l0-37.625 q 51.188-9.188 81.594-25.156t 30.406-35t-29.969-35.219t-81.594-25.594t-112.438-9.406zM 308,208.562q0,37.625 -24.5,64.531t-59.5,26.906t-59.5-26.906t-24.5-64.531l0-29.75 q 39.375-18.813 84-18.813
t 84,18.813l0,29.75 zM 419.125,55.875q-6.563-27.125 -62.563-45.5t-132.563-18.375t-132.563,18.375t-62.563,45.5q 29.313-16.625 81.375-26.25t 113.75-9.625t 113.75,9.625t 81.375,26.25z" data-tags="alienship" />
<glyph unicode="&#xf420;" d="M 224-64q-60.813,0 -112.438,29.969t-81.594,81.594t-29.969,112.438q0,45.5 17.719,87.063t 47.688,71.531t 71.531,47.688t 87.063,17.719t 87.063-17.719t 71.531-47.688t 47.688-71.531t 17.719-87.063t-17.719-87.063t-47.688-71.531t-71.531-47.688t-87.063-17.719zM 101.938,313.125q 1.75-2.625 6.563-6.125q 4.375-3.5 12.906-3.281t 13.344-0.219q 10.938,13.563 23.188,20.563q 7,4.375 17.281,7
t 16.844,3.063l 6.563,0.875q-2.625-3.063 -6.781-8.094t-11.594-19.031t-8.75-26.25q 1.75-1.75 12.469-4.594t 12.031-5.031l 28,0 q 5.688,0 7.875-10.063t-1.313-16.188q-2.188-0.438 -11.156-5.688t-22.094-13.125t-18.813-10.938q-0.875-1.75 -1.313-2.188q-0.875-1.75 1.531-14.656t-1.094-21.656q-0.438-0.875 -1.969-0.219t-4.594,2.406t-5.25,2.625q-3.5,1.75 -7.656,2.188t-4.156,0q-4.813-6.563 -7.438-12.25q 1.313-7.438 2.188-9.188
q 5.688-11.813 16.625-22.094t 24.938-12.031q 7.875-0.875 15.969,3.281t 14,9.844t 13.781,10.5t 14.438,4.375q 16.188,0 26.688-5.469t 10.5-15.094q0-2.625 -2.625-4.813l 0.219-0.219t 0.656-0.219q-1.313-1.313 -3.938-2.188t-4.594-1.313t-5.688-0.656t-4.594-0.219q-5.25-0.875 -13.125-10.719t-14-12.031q-7.438-2.625 -17.938-10.719t-19.906-13.344t-18.156-3.938q 2.188-2.625 0.875-3.063q-0.438,0 1.75-2.188
q 18.813-14 51.188-13.563q-7.438-4.375 -21-5.688q 8.313-3.5 17.063-5.688q 33.25-2.188 53.813,4.813t 36.75,24.938q-1.75-11.375 -8.75-21.438q 3.063,1.313 6.563,3.5q 21.438,21.875 30.188,40.688t 7.875,39.813l0,1.094 l0,1.094 q0,3.5 -0.438,5.688q 6.563-7.875 9.188-18.375q 1.313,51.188 -10.5,71.75q 17.063-10.063 26.688-28q 0.438,51.625 -16.188,84.875q 12.688-8.75 22.313-20.125q-8.313,37.188 -35,69.563q-55.563,50.313 -130.375,50.313q-68.25,0 -122.063-42.875z" data-tags="firefox" />
<glyph unicode="&#xf422;" d="M 392-64l-336,0 q-23.188,0 -39.594,16.406t-16.406,39.594l0,224 q0,23.188 16.406,39.594t 39.594,16.406l 56,0 l0,42 q0,29.75 22.313,49.875t 47.688,20.125l 84,0 q 25.375,0 47.688-20.125t 22.313-49.875l0-42 l 56,0 q 23.188,0 39.594-16.406t 16.406-39.594l0-224 q0-23.188 -16.406-39.594t-39.594-16.406zM 126,188q-17.5,0 -29.75-12.25t-12.25-29.75t 12.25-29.75t 29.75-12.25t 29.75,12.25t 12.25,29.75
t-12.25,29.75t-29.75,12.25zM 280,300q0,11.813 -8.094,19.906t-19.906,8.094l-56,0 q-11.375,0 -19.688-8.094t-8.313-19.906l0-28 l 112,0 l0,28 zM 364,104l-112-28l 28-84l 112,28z" data-tags="travel" />
<glyph unicode="&#xf33f;" d="M 439.688,224.312l-196-224q-7.875-8.313 -19.469-8.313t-19.906,8.313l-196,224q-8.313,7.875 -8.313,19.469t 8.313,19.906l 56,56q 8.313,8.313 19.688,8.313l 280,0 q 11.375,0 19.688-8.313l 56-56q 8.313-7.875 8.313-19.688t-8.313-19.688zM 224,20l 50.313,57.313q-8.75-1.313 -17.063-1.313l-40.25,0 q-25.813,0 -45.938,4.375zM 126,132l 42,0 q0-14 12.469-21t 29.531-7l 28,0 q 24.938,0 33.469,5.688
t 8.531,22.313q0,12.688 -13.563,20.344t-42.438,7.656q-33.688,0 -52.5,0.438t-42.219,3.281t-38.281,8.094zM 84,300l-56-56l 28.438-32.375l-0.219,1.75t-0.219,2.625q0,20.563 19.688,40.469t 47.688,31.719t 53.375,11.813l-92.75,0 zM 238,300q 60.375,0 79.625-30.625l 18.375,30.625l-98,0 zM 380.188,283.812l-30.188-39.813l-56,0 q0,9.625 -10.063,16.188t-22.313,9.188t-23.625,2.625l-42,0 q-27.125,0 -41.563-6.344t-14.438-21.656
q0-11.375 26.25-19.688t 57.75-8.313q 31.938,0 54.688-4.594t 34.781-12.906t 17.281-17.719t 5.25-20.781q0-4.375 -0.875-13.125l 84.875,97.125z" data-tags="superman" />
<glyph unicode="&#xf430;" d="M 412.125-64l-376.25,0 q-13.563,0 -21.875,5.688t-11.156,14.219t-2.625,19.688t 2.406,20.563t 5.25,18.594l 39.375,214.375q 6.125,20.563 24.063,31.719t 38.938,11.156l 35,0 q-5.25,14.438 -5.25,28q0,35 24.5,59.5t 59.5,24.5t 59.5-24.5t 24.5-59.5q0-13.563 -5.25-28l 35,0 q 21,0 38.938-11.156t 24.063-31.719l 39.375-214.375q 3.063-9.188 5.25-18.594t 2.406-20.563t-2.625-19.688t-11.156-14.219t-21.875-5.688zM 224,328
q-11.813,0 -19.906-8.094t-8.094-19.688t 8.094-19.906t 19.906-8.313t 19.906,8.313t 8.094,19.906t-8.094,19.688t-19.906,8.094zM 266,48l-14,0 q-10.5,0 -19.25,9.188t-8.75,18.813l0,28 l 14,0 q 5.688,0 9.844,4.156t 4.156,9.844t-4.156,9.844t-9.844,4.156l-14,0 l0,42 q0,5.688 -4.156,9.844t-9.844,4.156t-9.844-4.156t-4.156-9.844l0-42 l-14,0 q-5.688,0 -9.844-4.156
t-4.156-9.844t 4.156-9.844t 9.844-4.156l 14,0 l0-28 q0-21 17.5-38.5t 38.5-17.5l 14,0 q 5.688,0 9.844,4.156t 4.156,9.844t-4.156,9.844t-9.844,4.156z" data-tags="weight" />
<glyph unicode="&#xf42f;" d="M 336.438,108.812q 7.875-7.438 29.313-3.5t 39.375,17.063q 21.875-34.563 32.594-64.969t 10.281-52.281t-5.906-36.969t-15.531-24.719q-20.125-20.563 -63.656,13.344t-144.156,134.969l-31.5,31.5q-105.438,105.438 -126.438,127.75q-59.938,65.188 -60.813,92.75q-0.438,10.938 7.438,18.813q 9.188,9.188 23.188,14.656t 33.906,6.563t 47.688-7.438t 59.281-26.469q-3.5-4.813 -4.813-6.125q-11.375-13.125 -26.469-23.625
t-27.781-15.313q 4.813-3.938 14.656-4.594t 21.219,2.188t 23.406,9.625t 20.781,16.406q0,0.438 3.938,5.688q 40.688-27.125 86.188-69.563q-0.438,0 -1.75-1.969t-2.188-2.844q-11.813-13.125 -26.688-23.625t-27.563-15.313q 4.813-3.938 14.656-4.594t 21,2.188t 23.188,9.625t 20.781,15.969l 1.094-1.094l 1.094-1.094q 49.438-49.438 82.688-95.813q-25.813-27.563 -52.5-37.188z" data-tags="bread" />
<glyph unicode="&#xf42e;" d="M 420-8l-28,0 l0-14 q0-5.688 -4.156-9.844t-9.844-4.156t-9.844,4.156t-4.156,9.844l0,14 l-280,0 l0-14 q0-5.688 -4.156-9.844t-9.844-4.156t-9.844,4.156t-4.156,9.844l0,14 l-28,0 q-11.375,0 -19.688,8.313t-8.313,19.688l0,280 q0,11.375 8.313,19.688t 19.688,8.313l 392,0 q 11.813,0 19.906-8.094t 8.094-19.906l0-280 q0-11.813 -8.094-19.906t-19.906-8.094zM 378,104
q 5.688,0 9.844,4.156t 4.156,9.844t-4.156,9.844t-9.844,4.156t-9.844-4.156t-4.156-9.844t 4.156-9.844t 9.844-4.156zM 350,76q 5.688,0 9.844,4.156t 4.156,9.844t-4.156,9.844t-9.844,4.156t-9.844-4.156t-4.156-9.844t 4.156-9.844t 9.844-4.156zM 350,132q 5.688,0 9.844,4.156t 4.156,9.844t-4.156,9.844t-9.844,4.156t-9.844-4.156t-4.156-9.844
t 4.156-9.844t 9.844-4.156zM 308,244q0,11.813 -8.094,19.906t-19.906,8.094l-224,0 q-11.375,0 -19.688-8.094t-8.313-19.906l0-168 q0-11.375 8.313-19.688t 19.688-8.313l 224,0 q 11.813,0 19.906,8.313t 8.094,19.688l0,168 zM 420,258q0,5.688 -4.156,9.844t-9.844,4.156l-56,0 q-5.688,0 -9.844-4.156t-4.156-9.844l0-28 q0-5.688 4.156-9.844t 9.844-4.156l 56,0 
q 5.688,0 9.844,4.156t 4.156,9.844l0,28 zM 406,160q-5.688,0 -9.844-4.156t-4.156-9.844t 4.156-9.844t 9.844-4.156t 9.844,4.156t 4.156,9.844t-4.156,9.844t-9.844,4.156zM 406,104q-5.688,0 -9.844-4.156t-4.156-9.844t 4.156-9.844t 9.844-4.156t 9.844,4.156t 4.156,9.844t-4.156,9.844t-9.844,4.156z" data-tags="microwave" />
<glyph unicode="&#xf42d;" d="M 448,48q-42-21 -66.5-45.5t-45.5-66.5q0,7 -0.656,14.219t-2.406,15.75t-3.063,14.656t-4.375,15.969t-4.156,14t-4.594,14.875t-4.375,12.906q-74.375-52.063 -168.219,41.781t-41.781,168.219q-1.75,0.438 -12.688,4.156t-15.094,4.813t-14,4.156t-15.969,4.375t-14.656,3.063t-15.75,2.406t-14.219,0.656q 42,21 66.5,45.5t 45.5,66.5q0-7 0.656-14.219t 2.406-15.75
t 3.063-14.656t 4.375-15.969t 4.156-14t 4.813-15.094t 4.156-12.688q 74.375,52.063 168.219-41.781t 41.781-168.219q 2.188-0.438 12.906-4.156t 14.875-4.813t 14-4.156t 15.969-4.375t 14.656-3.063t 15.75-2.406t 14.219-0.656z" data-tags="candy" />
<glyph unicode="&#xf42c;" d="M 420,216q0-56 -28-56q-1.313,0 -2.188-2.188q 2.188-14 2.188-25.813q0-47.25 -23.844-93.844t-62.344-74.156l-163.625,0 q-43.313,31.063 -67.813,86.188q-7.875-2.188 -18.375-2.188q-14.875,0 -28,20.344t-20.563,49.219t-7.438,56.438q0,70 56,70q 22.313,0 35-9.625q 23.625,30.625 58.406,48.125t 74.594,17.5q 42.438,0 79.188-19.906t 59.938-54.031q 0.875,2.625 0.875,3.938q0,28.875 20.563,49.438
t 49.438,20.563q 7,0 14-1.313l0-54.688 q-11.813,0 -19.906-8.094t-8.094-19.906zM 56,216q-28,0 -28-49.875q0-24.938 12.031-52.719t 24.281-35.219q-8.313,28.438 -8.313,53.813q0,37.188 16.188,71.313q-7.438,12.688 -16.188,12.688zM 196,328.219q0,11.594 8.094,19.688t 19.688,8.094t 19.906-8.094t 8.313-19.688t-8.313-19.906t-19.906-8.313t-19.688,8.313t-8.094,19.906z" data-tags="teapot" />
<glyph unicode="&#xf42b;" d="M 364,48q-14.875,14.875 -20.781,35.656t-6.781,48.344l-28.438,0 l0-70 q0-5.688 -4.156-9.844t-9.844-4.156t-9.844,4.156t-4.156,9.844l0,70 l-28,0 l0-70 q0-5.688 -4.156-9.844t-9.844-4.156t-9.844,4.156t-4.156,9.844l0,70 l-28,0 l0-42 q0-5.688 -4.156-9.844t-9.844-4.156t-9.844,4.156t-4.156,9.844l0,42 l-28,0 l0-14 q0-5.688 -4.156-9.844
t-9.844-4.156t-9.844,4.156t-4.156,9.844l0,14 l-34.125,0 q-8.75-23.188 -25.594-43.094t-38.281-26.906q-0.438,2.188 -7.219,6.781t-6.781,7.219q0,34.563 13.344,54.688t 42.656,26.25l0,6.125 q-29.313,6.125 -42.656,26.25t-13.344,54.688q0,2.625 6.781,7.219t 7.219,6.781q 21.438-7 38.281-26.906t 25.594-43.094l 34.125,0 l0,14 q0,5.688 4.156,9.844t 9.844,4.156t 9.844-4.156t 4.156-9.844l0-14 
l 28,0 l0,42 q0,5.688 4.156,9.844t 9.844,4.156t 9.844-4.156t 4.156-9.844l0-42 l 28,0 l0,70 q0,5.688 4.156,9.844t 9.844,4.156t 9.844-4.156t 4.156-9.844l0-70 l 28,0 l0,70 q0,5.688 4.156,9.844t 9.844,4.156t 9.844-4.156t 4.156-9.844l0-70 l 28.438,0 q 0.875,27.563 6.781,48.344t 20.781,35.656q 38.5-6.563 61.25-38.063t 22.75-73.938t-22.75-73.938t-61.25-38.063zM 378,188
q-5.688,0 -9.844-4.156t-4.156-9.844l0,0 q0-5.688 4.156-9.844t 9.844-4.156t 9.844,4.156t 4.156,9.844t-4.156,9.844t-9.844,4.156z" data-tags="fishbone" />
<glyph unicode="&#xf42a;" d="M 436.625,241.375l-76.125-69.125l 25.375-25.375q 6.125-6.125 6.125-14.875t-6.125-14.875l-147.438-147q-6.125-6.125 -14.656-6.125t-14.656,6.125l-137.813,137.813q-31.5,9.188 -51.406,35t-19.906,59.063q0,40.25 28.656,69.125t 69.344,28.875q 23.625,0 43.969-10.5t 33.906-28.875l 33.25,33.25q 6.125,6.125 14.656,6.125t 14.656-6.125l 59.938-59.5l 138.25,147.875q 5.688,6.125 9.625-6.563q 1.75-4.813 1.75-9.188l0-98.875 
q0-5.688 -3.281-13.344t-8.094-12.906zM 236.25,266.75q-5.25,5.25 -12.469,5.25t-12.031-5.25l-24.938-24.5q 9.188-19.688 9.188-40.25q0-16.188 -6.125-33.25l 23.625-24.938l 70.438,75.25zM 345.188,158.25l-120.313-108.938q-3.063-2.625 -8.75-0.656t-10.938,5.906l-5.25,3.5l-57.313,56.875q-17.938-9.188 -38.5-10.5l 107.625-107.188q 4.813-5.25 12.031-5.25t 12.469,5.25l 122.5,122.5q 5.25,5.25 5.25,12.25t-5.25,12.25z" data-tags="foursquare" />
<glyph unicode="&#xf429;" d="M 413.875,179.25q-21.875-78.75 -21.875-131.25l0-84 l-28,0 l0,112 q0,55.563 -18.375,76.563q-10.063-7.875 -21.438-26.031t-20.781-38.5t-21.656-42.875t-24.063-40.25t-28-29.313t-33.688-11.594q-44.625,0 -88.156,4.375t-75.688,14.438t-32.156,23.188q0,11.375 28.438,34.563t 62.125,42.438t 49.438,21q 7.875-7.875 13.344-12.469t 17.719-10.063t 24.938-5.469q 10.063,0 38.063,36.094t 56.656,82.688t 50.969,94.063
t 22.313,67.156q 35,0 59.5-28.656t 24.5-69.344q0-23.625 -9.188-44.188t-24.938-34.563z" data-tags="stiletto" />
<glyph unicode="&#xf428;" d="M 446.688-62.688q-7-7 -49.656,23.188t-57.531,45.063l-230.563,230.563q-100.188-24.063 -104.563-19.25q-4.375,3.938 -4.375,9.844t 4.375,10.281l 142.625,142.625q 4.375,4.375 10.281,4.375t 9.844-4.375q 4.813-4.375 -19.25-104.563l 230.563-230.563q 14.875-14.875 45.063-57.531t 23.188-49.656z" data-tags="nail" />
<glyph unicode="&#xf426;" d="M 364,272l-28,0 l-28-28l-84,28l-84,0 l 168-56l 28-28l-28-28l-168,56l-28,28l 28,28l-56,0 q-11.375,0 -19.688,8.313t-8.313,19.688l0,56 q0,11.813 8.313,19.906t 19.688,8.094l 280,0 q 11.813,0 19.906-8.094t 8.094-19.906l0-56 q0-11.375 -8.094-19.688t-19.906-8.313zM 308,132l 28-28l-28-28l-168,56l-28,28l 28,28zM 308,48
l 28-28l-28-28l-168,56l-28,28l 28,28zM 308-36l-28-28l-56,0 l-84,28l-28,28l 28,28z" data-tags="screw" />
<glyph unicode="&#xf425;" d="M 420-64q-11.813,0 -19.906,8.313t-8.094,19.688l0,269.063 l-112-66.938l0-6.125 l-8.313,1.313q-6.563-2.625 -13.125,1.75l-239.75,34.563q-7.875,0.875 -13.344,6.781t-5.469,13.781l0,107.625 q0,7.875 5.469,14t 13.344,6.563l 239.75,34.563q 6.563,4.375 13.125,1.75l 8.313,1.313l0-6.125 l 112-66.938l0,45.063 q0,11.813 8.094,19.906t 19.688,8.094t 19.906-8.094t 8.313-19.906l0-392 q0-11.375 -8.094-19.688t-19.906-8.313zM 56,315.75
l-13.563-1.75q-6.125-0.875 -10.281-5.25t-4.156-10.5l0-52.5 q0-6.125 4.156-10.5t 10.281-5.25l 13.563-1.75l0,87.5 zM 168,330.625l-56-7.438l0-102.375 l 56-7.438l0,117.25 zM 252,342l-28-3.938l0-132.125 l 28-3.938l0,140 zM 280,344.625l0-145.25 l 112,66.5l0,12.25 z" data-tags="windright" />
<glyph unicode="&#xf424;" d="M 429.188,197.625l-239.75-34.563q-6.563-4.375 -13.125-1.75l-8.313-1.313l0,6.125 l-112,66.938l0-269.063 q0-11.375 -8.094-19.688t-19.688-8.313t-19.906,8.313t-8.313,19.688l0,392 q0,11.813 8.313,19.906t 19.906,8.094t 19.688-8.094t 8.094-19.906l0-45.063 l 112,66.938l0,6.125 l 8.313-1.313q 6.563,2.625 13.125-1.75l 239.75-34.563q 7.875-0.875 13.344-6.781t 5.469-13.781l0-107.625 q0-7.875 -5.469-13.781t-13.344-6.781z
M 56,278.125l0-12.25 l 112-66.5l0,145.25 zM 224,338.062l-28,3.938l0-140 l 28,3.938l0,132.125 zM 336,323.187l-56,7.438l0-117.25 l 56,7.438l0,102.375 zM 420,298.25q0,6.125 -4.156,10.5t-10.281,5.25l-13.563,1.75l0-87.5 l 13.563,1.75q 6.125,0.875 10.281,5.25t 4.156,10.5l0,52.5 z" data-tags="windleft" />
<glyph unicode="&#xf423;" d="M 423.5,191.937l 21.875-56q 5.25-12.688 0.438-22.313t-17.063-9.625l-30.625,0 q 11.375-12.688 16.625-28l 19.25,0 q 5.688,0 9.844-4.156t 4.156-9.844t-4.156-9.844t-9.844-4.156l-14,0 q0-10.938 -3.938-23.625l 10.938-6.125q 5.25-3.063 6.563-8.75t-1.531-10.5t-8.313-6.344t-10.719,1.094l-8.75,5.25q-3.938-5.25 -10.063-11.375l 10.063-16.625q 3.063-5.25 1.531-10.719t-6.563-8.313t-10.719-1.531t-8.75,6.563l-8.75,14.875
q-17.063-7.875 -35-7.875l0-14 q0-5.688 -4.156-9.844t-9.844-4.156t-9.844,4.156t-4.156,9.844l0,14 l-28,0 l0-14 q0-5.688 -4.156-9.844t-9.844-4.156t-9.844,4.156t-4.156,9.844l0,14 l-28,0 l0-14 q0-5.688 -4.156-9.844t-9.844-4.156t-9.844,4.156t-4.156,9.844l0,14 l-28,0 l0-14 q0-5.688 -4.156-9.844t-9.844-4.156t-9.844,4.156t-4.156,9.844l0,14 l-28,0 
l0-14 q0-5.688 -4.156-9.844t-9.844-4.156t-9.844,4.156t-4.156,9.844l0,19.25 q-9.188,3.5 -16.188,7.875l-18.813-11.375q-5.25-2.625 -10.719-1.094t-8.313,6.344t-1.313,10.5t 6.344,8.75l 10.938,6.125q-8.313,10.938 -12.688,23.625l-19.25,0 q-5.688,0 -9.844,4.156t-4.156,9.844t 4.156,9.844t 9.844,4.156l 14,0 q0,10.938 3.938,23.625l-10.938,6.125q-4.813,3.063 -6.344,8.531t 1.313,10.5t 8.313,6.563t 10.719-1.094l 9.188-5.25
q 2.188,3.5 5.688,7l-27.563,0 q-11.813,0 -18.156,9.625t-3.281,22.313l 13.563,56q 2.188,10.063 10.938,17.063t 18.813,7l 62.125,0 q-11.813,0 -18.156,9.406t-3.281,22.531l 13.563,55.563q 2.188,10.5 10.938,17.5t 18.813,7l 122.063,0 q 8.313,0 16.625-5.25t 13.563-13.125l 124.688,70.438q 10.063,5.688 21.438,2.844t 17.281-12.906t 2.844-21.219t-13.125-17.281l-131.688-74.375l 3.5-9.188q 5.25-12.688 0.438-22.313t-17.063-9.625l 101.5,0 q 10.063,0 19.688-7t 13.563-17.063z
M 112.219,76q-11.594,0 -19.906-8.313t-8.313-19.688t 8.313-19.688t 19.906-8.313t 19.688,8.313t 8.094,19.688t-8.094,19.688t-19.688,8.313zM 224.219,76q-11.594,0 -19.906-8.313t-8.313-19.688t 8.313-19.688t 19.906-8.313t 19.688,8.313t 8.094,19.688t-8.094,19.688t-19.688,8.313zM 336.219,76q-11.594,0 -19.906-8.313t-8.313-19.688t 8.313-19.688t 19.906-8.313t 19.688,8.313t 8.094,19.688t-8.094,19.688t-19.688,8.313z" data-tags="tank" />
<glyph unicode="&#xf342;" d="M 224-64q-60.813,0 -112.438,29.969t-81.594,81.594t-29.969,112.438t 29.969,112.438t 81.594,81.594t 112.438,29.969t 112.438-29.969t 81.594-81.594t 29.969-112.438t-29.969-112.438t-81.594-81.594t-112.438-29.969zM 252-5.375l0,53.375 l-112,0 l-12.688-25.375q 43.75-30.625 96.688-30.625q 13.125,0 28,2.625zM 168,104l 84,0 l0,168 zM 56,160q0-47.688 25.375-88.813l 128.188,255.938
q-64.75-5.25 -109.156-53.375t-44.406-113.75zM 308,305.25l0-290.5 q 38.5,22.313 61.25,60.813t 22.75,84.438t-22.75,84.438t-61.25,60.813z" data-tags="avengers" />
<glyph unicode="&#xf343;" d="M 352.188,131.562q 11.813-10.938 11.813-27.563q0-41.563 -56-58.625l0-95.375 q0-5.688 -4.156-9.844t-9.844-4.156t-9.844,4.156t-4.156,9.844l0,56 l0,28 l0,5.25 l-0.438-0.219l-0.438-0.219q-3.5,9.188 -13.125,9.188q-5.25,0 -9.188-3.5t-4.375-8.75l-0.438,0 l0-1.75 l0-28 l0-56 q0-5.688 -4.156-9.844t-9.844-4.156t-9.844,4.156t-4.156,9.844l0,56 l0,28 l0,0 q0,6.125 -4.156,10.063t-9.844,3.938
t-9.844-3.938t-4.156-10.063l0,0 l0-28 l0-56 q0-5.688 -4.156-9.844t-9.844-4.156t-9.844,4.156t-4.156,9.844l0,56 l0,28 l0,1.75 l-0.438,0 q-0.438,5.25 -4.375,8.75t-9.188,3.5q-9.625,0 -13.125-9.188l-0.438,0 t-0.438,0.438l0-5.25 l0-28 l0-56 q0-5.688 -4.156-9.844t-9.844-4.156t-9.844,4.156t-4.156,9.844l0,95.375 q-56,17.063 -56,58.625q0,16.625 11.813,27.563q-39.813,41.563 -39.813,98.438q0,31.5 13.344,59.938
t 36.969,49t 57.75,32.813t 73.938,12.25t 73.938-12.25t 57.75-32.813t 36.969-49t 13.344-59.938q0-56.875 -39.813-98.438zM 112,230q0,5.688 -4.156,9.844t-9.844,4.156t-9.844-4.156t-4.156-9.844q0-31.063 16.188-50.531t 39.813-19.469q 28,0 28,14q-56,28 -56,56zM 182,132q-5.688,0 -9.844-4.156t-4.156-9.844t 4.156-9.844t 9.844-4.156q 10.5,0 12.25,1.75
t 1.75,12.25t-1.75,12.25t-12.25,1.75zM 238,132q-10.5,0 -12.25-1.75t-1.75-12.25t 1.75-12.25t 12.25-1.75q 5.688,0 9.844,4.156t 4.156,9.844t-4.156,9.844t-9.844,4.156zM 322,244q-5.688,0 -9.844-4.156t-4.156-9.844q0-28 -56-56q0-14 28-14q 23.625,0 39.813,19.469t 16.188,50.531q0,5.688 -4.156,9.844t-9.844,4.156z" data-tags="punisher" />
<glyph unicode="&#xf344;" d="M 224-64q-45.5,0 -87.063,17.719t-71.531,47.688t-47.688,71.531t-17.719,87.063t 17.719,87.063t 47.688,71.531t 71.531,47.688t 87.063,17.719t 87.063-17.719t 71.531-47.688t 47.688-71.531t 17.719-87.063t-17.719-87.063t-47.688-71.531t-71.531-47.688t-87.063-17.719zM 205.625,91.75q-16.625,2.625 -27.125,9.844t-10.5,16.406q0,8.75 10.281,15.969t 26.906,10.281
q-8.75,27.563 -31.063,59.281t-48.125,56.656q 29.75,13.563 48.344,38.5t 20.344,54.688q-46.813-7 -84.875-34.125t-59.938-69.125t-21.875-90.125q0-50.313 23.625-93.625t 64.531-70.219t 90.344-31.281q-8.313,0.875 -16.625,2.188q-10.5,31.063 -38.063,52.063q 17.5,13.125 32.375,31.938t 21.438,40.688zM 253.313,353.375q 1.75-29.75 20.344-54.688t 48.344-38.5q-25.813-24.938 -48.125-56.656t-31.063-59.281
q 16.625-3.063 26.906-10.281t 10.281-15.969q0-9.188 -10.5-16.406t-27.125-9.844q 6.563-21.875 21.438-40.688t 32.375-31.938q-27.563-21 -38.063-52.063q-8.313-1.313 -16.625-2.188q 49.438,4.375 90.344,31.281t 64.531,70.219t 23.625,93.625q0,48.125 -21.875,90.125t-59.938,69.125t-84.875,34.125zM 308,76q 7,2.625 13.125,5.906t 9.844,5.688t 8.969,7t 7.438,6.563t 8.313,8.313t 8.313,8.531q 6.563,6.563 10.281,20.563t 3.719,21.438
q 4.813,0 9.406-8.531t 4.594-19.469q0-40.25 -26.688-50.313q-14.438-5.688 -57.313-5.688zM 56,132q0,10.938 4.594,19.469t 9.406,8.531q0-7.438 3.719-21.438t 10.281-20.563q 2.188-2.188 8.313-8.531t 8.094-8.313t 7.438-6.563t 9.188-7t 9.844-5.688t 13.125-5.906l-0.438,0 l-14.438,0 t-13.125,0.438t-12.469,1.094t-10.719,1.969t-9.844,3.5l-7.875,5.25t-6.781,7.219t-4.375,9.406t-3.063,12.031
t-0.875,15.094z" data-tags="spawn" />
<glyph unicode="&#xf345;" d="M 224-64q-60.813,0 -112.438,29.969t-81.594,81.594t-29.969,112.438t 29.969,112.438t 81.594,81.594t 112.438,29.969t 112.438-29.969t 81.594-81.594t 29.969-112.438t-29.969-112.438t-81.594-81.594t-112.438-29.969zM 224,20q 34.125,0 64.75,15.75l-64.75,64.75l-64.75-64.75q 30.625-15.75 64.75-15.75zM 99.75,95.25l 64.75,64.75l-64.75,64.75q-15.75-30.625 -15.75-64.75t 15.75-64.75
zM 224,300q-34.125,0 -64.75-15.75l 64.75-64.75l 64.75,64.75q-30.625,15.75 -64.75,15.75zM 348.25,224.75l-64.75-64.75l 64.75-64.75q 15.75,30.625 15.75,64.75t-15.75,64.75z" data-tags="xmen" />
<glyph unicode="&#xf346;" d="M 420,104q0-18.813 -0.219-28.656t-1.75-26.906t-5.031-28.875t-9.406-26.906t-15.969-29.094t-23.625-27.563q 12.688,38.5 19.469,69.563t 7.656,43.094t 0.875,27.344q0,10.063 -6.344,18.813t-16.188,14.656t-18.813,9.844t-17.719,6.563q 3.063-9.625 3.063-21.875q0-13.125 -0.219-21.438t-1.75-24.5t-5.25-27.781t-9.406-25.156t-15.75-24.063t-23.625-17.063q 13.125,25.813 19.688,50.313t 7.438,36.75t 0.875,31.063
q0,20.563 -7.875,31.281t-23.188,15.094q-4.813-30.188 -15.531-61.25t-24.938-53.156t-26.469-22.094t-26.469,22.094t-24.938,53.156t-15.531,61.25q-15.313-4.375 -23.188-15.094t-7.875-31.281q0-18.813 0.875-31.063t 7.438-36.75t 19.688-50.313q-13.563,6.563 -23.625,17.063t-15.75,24.063t-9.406,25.156t-5.25,27.781t-1.75,24.5t-0.219,21.438q0,12.25 3.063,21.875q-8.75-2.625 -17.719-6.563t-18.813-9.844t-16.188-14.656
t-6.344-18.813q0-15.313 0.875-27.344t 7.656-43.094t 19.469-69.563q-15.75,15.75 -27.125,36.094t-16.844,36.969t-8.313,38.063t-3.281,31.5t-0.438,25.375q0,11.813 5.031,20.781t 15.094,14.875t 22.094,9.844t 28.875,6.125t 32.594,3.063t 36.313,1.313l0,0 q-22.313,0.438 -38.063,1.75t-30.625,4.813t-23.844,9.406t-14.219,15.969t-5.25,24.063q0,15.313 0.438,25.375t 3.281,31.5t 8.313,37.844t 16.844,36.969t 27.125,36.313q-28-84 -28-157.063
q0-24.063 31.063-32.813q-3.063,9.625 -3.063,21.875q0,13.125 0.219,21.438t 1.75,24.5t 5.25,27.781t 9.406,25.156t 15.75,24.063t 23.625,17.063q-13.125-25.813 -19.688-50.313t-7.438-36.75t-0.875-31.063q0-23.625 10.281-34.344t 30.406-13.781q 10.5,11.813 26.469,19.031t 30.844,7.219t 30.844-7.219t 26.469-19.031q 20.125,3.063 30.406,13.781t 10.281,34.344q0,18.813 -0.875,31.063t-7.438,36.75t-19.688,50.313q 13.563-6.563 23.625-17.063t 15.75-24.063
t 9.406-25.156t 5.25-27.781t 1.75-24.5t 0.219-21.438q0-12.25 -3.063-21.875q 31.063,8.75 31.063,32.813q0,73.063 -28,157.063q 13.563-13.563 23.625-27.563t 15.969-29.094t 9.406-26.906t 5.031-28.875t 1.75-26.906t 0.219-28.656q0-14 -5.25-24.063t-14.219-15.969t-23.844-9.406t-30.625-4.813t-38.063-1.75l0,0 q 20.563-0.438 36.313-1.313t 32.594-3.063t 28.875-6.125t 22.094-9.844t 15.094-14.875t 5.031-20.781z
M 168,258q0,17.5 12.25,29.75t 29.75,12.25t 29.75-12.25t 12.25-29.75t-12.25-29.75t-29.75-12.25t-29.75,12.25t-12.25,29.75z" data-tags="spider" />
<glyph unicode="&#xf347;" d="M 377.125,73.375q-35.438-29.313 -92.75-44.188l-57.75,103.688l 86.625,156.188q 46.375-10.063 78.313-25.375q 1.75-10.938 1.75-19.688l0-15.531 l0-21.875 t-0.438-22.75t-1.531-27.781t-2.844-26.688t-4.594-29.313t-6.781-26.688zM 315.438,182.312q-20.563-9.188 -41.563-23.844t-21-21.219q0-8.313 2.406-14.219t 7.875-9.406t 10.281-5.688t 13.563-3.063t 13.781-1.094t 14.656-0.219q 49.875,0 49.875,112.438
q0-0.438 -5.469-5.469t-17.938-13.563t-26.469-14.656zM 342.563,341.562q 30.625-24.938 43.313-57.313q-24.5,17.5 -59.5,28.438zM 224.875,328l0,56 q 52.063-2.625 94.063-26.688l-20.563-37.188q-34.125,7 -73.5,7.875zM 152.25-1.438q 22.75-5.688 44.188-7l0-55.563 q-32.813,4.375 -65.188,24.938zM 196.438,78.625l0-58.625 q-16.188,0.875 -30.625,3.063zM 196.438,300l0-112.875 l-59.063,107.188q 30.188,4.813 59.063,5.688zM 102.813,356.437
q 42,24.063 93.625,27.563l0-56 q-39.375-1.313 -73.5-8.313zM 79.188,340.687l 15.75-28q-35-10.938 -59.063-28q 12.688,31.5 43.313,56zM 194.688,132.875l-57.75-104.125q-54.688,14 -89.688,42.438q-19.25,60.813 -19.25,172.813q0,8.75 2.188,19.688q 31.938,15.313 77.875,24.938zM 56,216q0-112.438 49.875-112.438q 9.625,0 14.656,0.219t 13.781,1.094t 13.563,2.844t 10.281,5.688t 7.875,9.625t 2.406,14.219q0,6.563 -21,21.219
t-41.563,23.844q-14,6.125 -26.469,14.656t-17.719,13.781zM 108.5-22.438q-32.375,27.563 -50.313,66.063q 28-22.75 66.5-36.75zM 224.875,187.125l0,112.875 q 29.313-0.875 59.5-5.688zM 224.875,19.562l0,59.063 l 30.625-55.563q-15.75-2.625 -30.625-3.5zM 290.5-39.938q-33.25-20.563 -65.625-24.063l0,55.563 q 21.438,1.313 44.188,7zM 313.688-23.313l-17.063,30.625q 41.563,14.875 70.875,39.813q-18.813-41.125 -53.813-70.438z" data-tags="spiderman" />
<glyph unicode="&#xf348;" d="M 364-8q-21.438-21.438 -67.375-38.719t-84.875-17.281q-39.813,0 -87.063,17.281t-68.688,38.719q-28,28 -28,224l0,154 q0,5.688 4.156,9.844t 9.844,4.156t 9.844-4.156t 4.156-9.844l 16.188-65.188q 26.25,23.625 62.781,37.406t 76.781,13.781q 39.813,0 75.25-13.563t 60.813-36.75l 16.188,64.313q0,5.688 4.156,9.844t 9.844,4.156t 9.844-4.156t 4.156-9.844l0-154 
q0-196 -28-224zM 140,188q-11.375,0 -28.656,8.75t-23.406,20.125q-3.938-7.438 -3.938-14.875q0-18.813 10.063-30.406t 31.938-11.594q 21,0 29.969,6.125t 12.031,21.875l-28,0 zM 332.063,216.875q-6.125-11.813 -22.969-20.344t-29.094-8.531l-28,0 q 3.063-15.75 12.031-21.875t 29.969-6.125q 21.875,0 31.938,11.594t 10.063,30.406q0,7.438 -3.938,14.875zM 210,76l-154,56l0,0 l0,0 l0,0 q0-95.375 23.625-119.438
q 17.938-18.375 58.188-33.469t 73.5-15.094q 32.813,0 71.75,14.875t 57.313,33.688q 23.625,24.063 23.625,119.438z" data-tags="batman" />
<glyph unicode="&#xf349;" d="M 366.188,20q-10.5-22.75 -31.938-44.625t-47.688-39.375l-153.125,0 q-24.5,16.188 -45.281,38.5t-32.156,45.5q-28,56 -28,224q0,15.313 4.813,42.219t 9.188,41.781l 70,42q 43.313,14 99.313,14q 52.938,0 96.688-14l 70-42q 4.375-14.875 9.188-41.781t 4.813-42.219q0-168 -25.813-224zM 146.563-36l 128.625,0 q 38.5,26.688 60.813,70l-28-14l-28,0 l-21,28l-98,0 l-21-28l-28,0 
l-28,14q 18.813-39.375 62.563-70zM 364,300l-70.875,43.75q-14.438,4.813 -28.438,7.438l-12.688-51.188q-3.063-11.813 -10.063-19.906t-17.938-8.094l-28,0 q-10.5,0 -17.719,8.531t-10.281,19.469l-12.688,50.75q-13.125-2.625 -26.25-7l-73.063-43.75l0-98 q0-24.063 7-60.156t 7-51.844q0-10.5 2.625-22.313l 54.688-27.125l 26.688,35.438l 112,0 l 26.688-35.438l 54.688,27.125q 2.625,12.25 2.625,22.313
q0,14.875 7,51.844t 7,60.156l0,98 zM 252,202l 84,14l0-28 l-84-28l0,42 zM 84,216l 84-14l0-42 l-84,28l0,28 z" data-tags="ironman" />
<glyph unicode="&#xf34a;" d="M 381.5,182.75q-12.688,21 -35.875,28.875q-29.75,17.938 -65.625,26.25l0,126.875 q 51.188-10.938 81.594-41.563t 30.406-78.75q0-40.688 -2.625-73.5q-2.188,5.25 -7.875,11.813zM 196,242.687l0,99.75 l0,26.25 l0,1.75 q0,5.688 4.156,9.844t 9.844,4.156l 28,0 q 5.688,0 9.844-4.156t 4.156-9.844l0-1.313 l0-26.688 l0-99.75 q-14.875,1.75 -27.781,1.75t-28.219-1.75zM 66.5,183.187q-5.688-7 -7.875-12.25q-2.625,32.813 -2.625,73.5q0,47.25 30.625,77.875
t 81.375,42l0-126.438 q-35.875-8.313 -65.625-26.25q-23.188-7.875 -35.875-28.438zM 126,104q-17.5,0 -29.75,12.469t-12.25,29.75t 12.25,29.531t 29.75,12.25t 29.75-12.25t 12.25-29.531t-12.25-29.75t-29.75-12.469zM 280,146.219q0,17.281 12.25,29.531t 29.75,12.25t 29.75-12.25t 12.25-29.531t-12.25-29.75t-29.75-12.469t-29.75,12.469t-12.25,29.75zM 126,76q 28.875,0 49.438,20.563t 20.563,49.438q0,21 -11.156,37.844
t-29.094,25.594q 34.125,7 68.25,7q 33.688,0 68.25-7q-18.375-8.75 -29.313-25.813t-10.938-37.625q0-28.875 20.563-49.438t 49.438-20.563q 28.438,0 48.781,19.906t 21.219,47.906l 56-179.813q-7.438,0 -23.844,3.938t-44.625,11.594t-48.344,12.469q-24.5-27.563 -56-41.781t-51.188-14.219t-51.188,14.219t-56,41.781q-20.125-4.813 -48.125-12.469t-44.625-11.594t-24.063-3.938l 56,179.813
q 0.875-28 21.219-47.906t 48.781-19.906zM 154-8l 140,0 q 5.688,0 9.844,4.156t 4.156,9.844q-1.313,3.063 -3.5,6.125l-52.5,91.875l-56,0 l-52.5-91.875l-3.5-6.125q0-5.688 4.156-9.844t 9.844-4.156zM 238,76l 28-56l-84,0 l 28,56l 28,0 z" data-tags="darthvader" />
<glyph unicode="&#xf34e;" d="M 364,146q0-31.5 13.125-56.656t 33.688-35.656q-19.25-49.875 -47.25-83.781t-55.563-33.906q-11.813,0 -23.406,7l-23.188,14t-23.406,7t-23.406-7l-23.188-14t-23.406-7q-21.875,0 -43.313,23.188t-36.094,57.313t-23.625,72.844t-8.969,70.656q0,46.375 32.813,79.188t 79.188,32.813q 11.813,0 24.938-7t 24.719-14t 20.344-7q 9.625,0 21.219,7t 24.281,14t 24.5,7
q 25.375,0 50.094-10.719t 43.531-29.094q-17.063-12.688 -27.344-35.656t-10.281-50.531zM 238,286q-0.875,16.188 6.781,34.344t 23.188,33.469t 33.688,23.188t 34.344,7q 0.875-16.188 -6.781-34.344t-23.188-33.688t-33.688-23.406t-34.344-6.563z" data-tags="apple" />
<glyph unicode="&#xf34b;" d="M 336,76l-112,0 l0-112 q0-11.375 -8.094-19.688t-19.906-8.313l-112,0 q-11.375,0 -19.688,8.313t-8.313,19.688l0,392 q0,11.375 8.313,19.688t 19.688,8.313l 112,0 q 11.813,0 19.906-8.313t 8.094-19.688l0-112 l 112,0 q 11.813,0 19.906-8.313t 8.094-19.688l0-112 q0-11.813 -8.094-19.906t-19.906-8.094zM 196,342q0,5.688 -4.156,9.844t-9.844,4.156l-84,0 q-5.688,0 -9.844-4.156t-4.156-9.844
l0-84 q0-5.688 4.156-9.844t 9.844-4.156l 84,0 q 5.688,0 9.844,4.156t 4.156,9.844l0,84 zM 196,204.625q0,4.813 -3.281,8.094t-8.094,3.281l-89.25,0 q-4.813,0 -8.094-3.281t-3.281-8.094l0-89.25 q0-4.813 3.281-8.094t 8.094-3.281l 89.25,0 q 4.813,0 8.094,3.281t 3.281,8.094l0,89.25 zM 196,64.625q0,4.813 -3.281,8.094t-8.094,3.281l-89.25,0 q-4.813,0 -8.094-3.281
t-3.281-8.094l0-89.25 q0-4.813 3.281-8.094t 8.094-3.281l 89.25,0 q 4.813,0 8.094,3.281t 3.281,8.094l0,89.25 zM 336,204.625q0,4.813 -3.281,8.094t-8.094,3.281l-89.25,0 q-4.813,0 -8.094-3.281t-3.281-8.094l0-89.25 q0-4.813 3.281-8.094t 8.094-3.281l 89.25,0 q 4.813,0 8.094,3.281t 3.281,8.094l0,89.25 z" data-tags="tetrisone" />
<glyph unicode="&#xf350;" d="M 308-64l-168,0 l-140,140l0,168 l 140,140l 168,0 l 140-140l0-168 zM 196,160l-168,77.438l0-154.875 zM 146.563-36l 154.875,0 l-77.438,168zM 224,188l 77.438,168l-154.875,0 zM 252,160l 168-77.438l0,154.875 z" data-tags="residentevil" />
<glyph unicode="&#xf351;" d="M 399,241.812l-111.563-111.125l-112.438,111.563q-6.563,6.563 -15.969,6.563t-15.969-6.563t-6.563-15.969t 6.563-15.969l 160.563-158.813q 20.125-20.125 20.125-48.125t-20.125-47.688t-48.344-19.688t-47.906,19.688l-161,159.25q-30.188,30.188 -41.125,70.875t0,81.156t 41.344,70.875t 71.531,41.125t 82.031,0t 71.531-41.344l 15.75-15.75l 20.563,20.125q 9.188,9.188 24.938,12.906t 34.344-0.875t 31.719-17.719
q 20.563-20.563 20.781-47.688t-20.781-46.813zM 294,244l-56,56q-27.125,27.125 -56.875,36.75t-56.438,1.969t-49.438-30.406q-21.875-21.875 -29.75-49.219t-1.313-53.375t 25.813-45.719l 168-168q 14-14 28,0t0,28l-162.313,162.75q-20.125,20.125 -20.125,48.563t 20.125,49q 13.125,12.688 31.281,17.5t 34.563,1.531t 26.469-13.344l 70-70q 6.563-6.563 14-6.563t 14,6.563q 14,14 0,28z" data-tags="designcontest" />
<glyph unicode="&#xf352;" d="M 420,20l0,84 l-56,0 l0-84 l-28,0 l0,28 l-224,0 l0-28 l-28,0 l0,84 l-56,0 l0-84 l-28,0 l0,112 l 28,0 l0,56 l 56,0 l0,56 l 56,0 l0,28 l 28,0 l0-28 l 112,0 l0,28 l 28,0 l0-28 l 56,0 l0-56 l 56,0 l0-56 l 28,0 l0-28 l0-84 l-28,0 zM 168,188l-56,0 l0-56 l 56,0 l0,56 zM 336,188l-56,0 l0-56 l 56,0 l0,56 zM 252-8l0,28 l 84,0 l0-28 l-84,0 zM 196-8l-84,0 l0,28 l 84,0 l0-28 z
M 112,300l 28,0 l0-28 l-28,0 l0,28 zM 56,328l 56,0 l0-28 l-56,0 l0,28 zM 336,300l0-28 l-28,0 l0,28 l 28,0 zM 392,328l0-28 l-56,0 l0,28 l 56,0 z" data-tags="spaceinvaders" />
<glyph unicode="&#xf363;" d="M 448,216q0-18.375 -3.938-33.25t-9.625-26.031t-17.5-19.469t-21.219-14t-27.781-9.406t-30.406-5.688t-35.656-2.844t-37.188-1.094t-40.688-0.219t-40.688,0.219t-37.188,1.094t-35.656,2.844t-30.406,5.688t-27.781,9.406t-21.219,14t-17.5,19.469t-9.625,26.031t-3.938,33.25q0,30.625 17.063,60.594t 47.25,54.031l-8.313,25.375l 80.5,13.563q 42,14.438 87.5,14.438q 78.75,0 142.188-41.125
l 25.813,13.125l 42-84l-0.438-0.438q 14.438-28 14.438-55.563zM 411.688,257.125l-19.688-13.125l-84,70l 29.75,14.875q-52.063,27.125 -113.75,27.125q-34.563,0 -68.25-9.188l 12.25-18.813l-84-56l-10.938,32.375q-21.438-17.938 -33.25-39.375t-11.813-43.313q0-36.313 20.125-56.875l 7.875,23.188l 84-28l-16.188-24.5q 30.188-3.5 100.188-3.5q 40.25,0 59.5,0.438l 10.5,41.563l 70,14l 20.125-35.438q 35.875,20.563 35.875,69.125q0,17.5 -8.313,35.438z
M 168,230l 28,70l 84-28l-14-56zM 96.25-44.313q-40.25,15.75 -40.25,36.313l-28,112q 23.188-11.813 57.75-18.375zM 168-60.938q-22.75,3.063 -42.875,7.875l-11.375,133.875q 24.5-3.063 54.25-3.938l0-137.813 zM 252,76l0-139.125 q-14.875-0.875 -28-0.875t-28,0.875l0,139.125 l 28,0 l 28,0 zM 322.875-53.063q-20.125-4.813 -42.875-7.875l0,137.813 q 29.75,0.875 54.25,3.938zM 420,104l-28-112q0-20.563 -40.25-36.313l 10.5,129.938
q 34.563,6.563 57.75,18.375z" data-tags="muffin" />
<glyph unicode="&#xf362;" d="M 364-8l-28,0 l0-8.313 q0-23.188 -12.906-36.969t-31.281-9.844l-219.625,43.313q-18.375,3.5 -31.281,22.313t-12.906,42l0,3.5 l0,274.75 l0,5.25 q0,23.188 16.406,39.594t 39.594,16.406l 280,0 q 23.188,0 39.594-16.406t 16.406-39.594l0-280 q0-23.188 -16.406-39.594t-39.594-16.406zM 84,201.562q0-20.125 13.125-36.75q 1.75-2.625 9.406-8.313t 13.563-12.031t 5.906-12.469l0-14 l0-42 
q0-6.563 13.781-12.031t 42.219-12.469q 17.063-4.375 29.531-3.281t 19.469,5.031t 7,8.75l0,28 l0,28 q0,6.125 5.906,11.594t 14,9.844t 9.406,5.688q 2.188,1.75 6.344,3.938t 5.25,4.594t 1.094,8.531q0,19.688 -12.688,36.313t-30.188,20.125q-10.938,2.188 -20.563-2.188q-13.125,22.313 -34.781,26.688t-34.344-12.688q-10.063,7.875 -20.563,10.063q-17.938,3.5 -30.406-7.875t-12.469-31.063zM 392,307.875q0,20.125 -14.219,34.125
t-33.906,14l-203.438,0 l 151.375-29.75q 18.375-3.938 31.281-22.75t 12.906-41.563l0-241.938 l 7.875,0 q 19.688,0 33.906,14.219t 14.219,33.906l0,239.75 z" data-tags="restaurantmenu" />
<glyph unicode="&#xf361;" d="M 336-36q-2.188-11.375 -9.406-19.688t-18.594-8.313l-168,0 q-11.375,0 -18.375,8.094t-9.625,19.906l-28,168l0,56 q0,12.688 8.531,21t 25.156,16.406t 20.563,10.719q 17.5,12.25 31.5,28.875t 20.563,35l-8.313,0 q-5.688,0 -9.844,4.156t-4.156,9.844l0,56 q0,5.688 4.156,9.844t 9.844,4.156l 84,0 q 5.688,0 9.844-4.156t 4.156-9.844l0-56 q0-5.688 -4.156-9.844t-9.844-4.156l-8.313,0 
q 13.125-35.438 48.563-61.25q 4.813-3.938 21.875-12.25t 26.469-17.063t 9.406-21.438l0-56 z" data-tags="bottle" />
<glyph unicode="&#xf360;" d="M 420.875-43q-17.063-17.5 -46.594-20.781t-65.844,9.625t-70.438,40.469q-17.063,14 -38.938,21.438t-41.781,9.406t-39.156,3.5t-36.094,6.563t-26.906,15.531q-35,35.438 -48.344,89.906t-1.531,108.938t 46.813,89.906t 88.594,47.469t 107.188-1.531t 88.594-49.438q 21.438-21.438 43.094-59.063t 38.063-82.25t 25.156-88.375t 3.719-82.031t-25.594-59.281zM 322,300.437
q-24.5,24.938 -57.531,39.813t-68.469,16.188q-34.125,0.875 -66.938-11.375t-55.563-35q-48.563-49.438 -45.5-121.625q 0.875-29.75 10.938-61.469t 23.188-55.344q 6.563-11.375 23.188-16.625t 38.281-6.563t 44.406-2.625t 45.938-7.438t 38.063-18.375q 31.063-25.375 57.969-38.5t 49.219-13.781t 37.188,14.656q 17.938,18.375 22.313,51.188t-3.5,70.219t-22.094,75.469t-33.25,70t-37.844,51.188zM 252,48
q-15.75,13.125 -43.313,19.688t-51.844,7.656t-45.719,4.375t-27.125,10.719q-25.813,32.375 -28,92.75q-2.625,62.125 38.938,105q 19.25,19.688 47.469,30.406t 57.531,9.844q 30.188-0.875 58.625-14t 49.438-34.563q 31.063-31.5 57.531-98.875t 26.469-119q0-21.438 -2.406-33.906t-11.594-22.094q-33.25-33.688 -126,42zM 154,272.437q-17.5,0 -29.75-12.469t-12.25-29.75t 12.25-29.531t 29.75-12.25t 29.75,12.25
t 12.25,29.531t-12.25,29.75t-29.75,12.469z" data-tags="steak" />
<glyph unicode="&#xf35f;" d="M 406,20q-31.5,0 -36.75-5.25t-5.25-36.75q0-17.5 -12.25-29.75t-29.75-12.25t-29.75,12.25t-12.25,29.75q 0.438,2.625 0.438,7.219t-0.656,17.5t-3.063,24.5t-8.75,25.375t-15.969,23.406l-56,56l-56,56q-13.563,13.563 -32.594,20.563t-31.719,8.094t-24.938,0.219q-4.375-0.875 -8.75-0.875q-17.5,0 -29.75,12.25t-12.25,29.75t 12.25,29.75t 29.75,12.25q 31.5,0 36.75,5.25t 5.25,36.75q0,17.5 12.25,29.75t 29.75,12.25t 29.75-12.25
t 12.25-29.75q0-4.375 -0.875-8.313q-0.875-12.25 0.219-24.938t 8.094-31.938t 20.563-32.813q 11.813-11.375 35-34.781t 42.219-42.438l 34.781-34.781q 9.188-9.188 22.094-15.531t 24.063-8.969t 23.406-3.5t 17.938-0.656t 9.625,0.656l 0.656,0 l 0.219,0 q 17.5,0 29.75-12.25t 12.25-29.75t-12.25-29.75t-29.75-12.25z" data-tags="bone" />
<glyph unicode="&#xf35e;" d="M 392.219,160q-22.969,0 -48.125,7t-53.156,14t-57.969,7t-88.375-14.438t-83.344-13.563q-86.188,2.625 -51.188,56q 13.125,20.125 28.219,39.156t 39.594,43.531t 50.094,42.219t 59.719,30.188t 68.688,12.469q 44.188,0 80.719-13.125t 60.594-35.875t 37.188-53.375t 13.125-65.188q0-27.125 -16.406-41.563t-39.375-14.438zM 233.188,160q 21.438,0 43.75-3.938q-15.313-77.438 3.063-178.063
q 3.5-17.5 -0.656-29.75t-15.969-12.25l-90.563,0 q-12.688,0 -22.531,11.594t-10.281,27.344q-2.625,93.188 25.375,175.438q 40.688,9.625 67.813,9.625z" data-tags="mushroom" />
<glyph unicode="&#xf35d;" d="M 363.781,48q-34.781,0 -59.281,24.719t-24.5,59.281q0,5.688 1.313,14q-137.375,49.438 -216.563,137.813q 18.375-102.813 76.125-184.625q 14.438,4.813 27.125,4.813q 35,0 59.5-24.5t 24.5-59.281t-24.5-59.5t-59.5-24.719t-59.5,24.5t-24.5,59.5q0,38.5 30.188,64.313q-66.5,92.75 -82.25,216.125q-2.625-0.438 -3.938-0.438q-11.375,0 -19.688,8.313t-8.313,19.688l0,28 q0,11.813 8.313,19.906t 19.906,8.094
t 19.688-8.094t 8.094-19.906q0-3.063 1.313-16.188q 79.625-108.063 234.5-165.375q 10.938,18.813 30.188,30.188t 42,11.375q 35,0 59.5-24.5t 24.5-59.281t-24.719-59.5t-59.5-24.719z" data-tags="cherry" />
<glyph unicode="&#xf35c;" d="M 280,356l-0.219,0.219l-0.219,0.219q-0.875-0.438 -2.188-0.875t-2.188-0.438l 172.813-419.125l-420,168.438l0-0.438 q0-5.688 -4.156-9.844t-9.844-4.156t-9.844,4.156t-4.156,9.844l0,0 l0,4.813 q 27.125,100.188 101.063,174.125t 174.563,101.063l 4.375,0 q 5.688,0 9.844-3.938t 4.156-9.844t-4.156-10.063t-9.844-4.156zM 335.781,20q 11.594,0 19.906,8.313t 8.313,19.906t-8.313,19.688t-19.906,8.094t-19.688-8.094
t-8.094-19.688t 8.094-19.906t 19.688-8.313zM 111.781,188q-11.594,0 -19.688-8.094t-8.094-19.688t 8.094-19.906t 19.688-8.313t 19.906,8.313t 8.313,19.906t-8.313,19.688t-19.906,8.094zM 195.781,272q-11.594,0 -19.688-8.094t-8.094-19.688t 8.094-19.906t 19.688-8.313t 19.906,8.313t 8.313,19.906t-8.313,19.688t-19.906,8.094zM 195.781,132q-11.594,0 -19.688-8.094t-8.094-19.688
t 8.094-19.906t 19.688-8.313t 19.906,8.313t 8.313,19.906t-8.313,19.688t-19.906,8.094zM 252,160.219q0-11.594 8.094-19.906t 19.906-8.313t 19.906,8.313t 8.094,19.906t-8.313,19.688t-19.906,8.094t-19.688-8.094t-8.094-19.688z" data-tags="pizza" />
<glyph unicode="&#xf35b;" d="M 224,104q-60.813,0 -112.438,15.094t-81.594,40.906t-29.969,56q0,35 38.938,63.219t 101.938,40.906q 3.063-32.375 26.906-54.25t 56.219-21.875t 56.219,21.875t 26.906,54.25q 63-12.688 101.938-40.906t 38.938-63.219q0-30.188 -29.969-56t-81.594-40.906t-112.438-15.094zM 224,272q-23.188,0 -39.594,16.406t-16.406,39.594t 16.406,39.594t 39.594,16.406t 39.594-16.406
t 16.406-39.594t-16.406-39.594t-39.594-16.406zM 96.25-44.313q-40.25,15.75 -40.25,36.313l-28,140q 23.188-23.188 56.875-36.75zM 113.313,86.062q 24.5-6.125 54.688-8.75l0-138.25 q-22.75,3.063 -42.875,7.875zM 252,76.437l0-139.563 q-14.875-0.875 -28-0.875t-28,0.875l0,139.563 q 10.938-0.438 28-0.438q 17.5,0 28,0.438zM 322.875-53.063q-20.125-4.813 -42.875-7.875l0,138.25 q 30.188,2.625 54.688,8.75zM 420,132l-28-140q0-20.563 -40.25-36.313
l 11.375,139.563q 33.688,13.563 56.875,36.75z" data-tags="cupcake" />
<glyph unicode="&#xf35a;" d="M 355.25,49.75q-19.25,49.875 -19.25,110.25t 19.25,110.25q 39.813-7 66.281-38.063t 26.469-72.188t-26.469-72.188t-66.281-38.063zM 378,188q-5.688,0 -9.844-4.156t-4.156-9.844t 4.156-9.844t 9.844-4.156t 9.844,4.156t 4.156,9.844t-4.156,9.844t-9.844,4.156zM 125.125,129.375q-11.375-3.5 -21-13.344t-16.844-21t-15.094-22.094t-19.031-17.938t-25.156-7
q-13.563,0 -20.781,8.313t-7.219,19.688q0,29.75 18.813,50.094t 50.313,28.656q 0.875,3.063 0.875,5.25t-0.875,5.25q-31.5,8.313 -50.313,28.656t-18.813,50.094q0,10.938 7.875,19.469t 20.125,8.531q 14,0 25.156-7t 19.031-17.938t 15.094-22.094t 16.844-21t 21-13.344q 17.5,20.563 56,39.375t 77.656,29.313t 68.031,12.25q-18.813-52.063 -18.813-111.563t 18.813-111.563q-28.875,1.75 -68.031,12.25t-77.656,29.313t-56,39.375z
M 280,286zM 238,328q 17.5,0 29.75-12.25t 12.25-29.75q-28,0 -71.969-17.063t-82.031-38.938q 11.375,21 35.438,44.625t 45.938,38.5t 30.625,14.875zM 175.875,62q 35-17.063 76.125-28.438q-7.875-18.813 -24.938-30.188t-37.625-11.375q-10.938,0 -15.969,3.281t-5.25,10.281t 1.313,14.656l 3.938,19.688t 2.406,21.656l0,0.438 z" data-tags="fish" />
<glyph unicode="&#xf359;" d="M 420-8q-5.25,0 -21.875,14.875q-14.438,4.813 -20.125-0.875t-0.875-20.125q 14.875-16.625 14.875-21.875q0-11.375 -8.313-19.688t-19.906-8.313t-19.688,8.313t-8.094,19.688q0,5.25 -1.75,12.031t-8.313,20.781t-10.938,22.969t-17.063,34.781l-31.5,29.75q 0.438,0.875 3.063,5.25t 5.031,7.875t 5.469,6.563t 6.344,5.469t 7.438,4.813t 5.469,3.281l 30.188-31.5q 25.813-12.688 34.781-17.063t 22.969-10.938t 20.781-8.313t 12.031-1.75
q 11.375,0 19.688-8.313t 8.313-19.906t-8.313-19.688t-19.688-8.094zM 266,118q-5.25-5.25 -9.406-13.125t-7.875-11.375t-10.719-3.5q-19.25,0 -36.531,4.375t-28.438,10.281t-28.438,14t-32.594,13.344q-63.875,21.438 -87.938,47.906t-24.063,78.094q0,52.063 36.969,89.031t 89.031,36.969q 51.625,0 78.094-24.063t 47.906-87.938q 6.125-17.938 17.719-40.469t 17.938-41.563t 6.344-43.969
q0-6.563 -3.719-10.281t-11.594-8.313t-12.688-9.406z" data-tags="chicken" />
<glyph unicode="&#xf358;" d="M 440.125,324.5l-47.688,0 q-11.375-0.438 -19.031-4.813t-15.969-12.688q-1.313-3.938 -4.813-12.25t-4.813-12.688q-4.813-18.813 -9.188-24.938q-3.938-5.25 -15.094-8.75t-13.781-5.688q-5.688-4.375 -12.688-15.75t-8.75-14q-2.625-3.063 -4.156-4.594t-5.031-2.625t-8.313-0.656q-11.813,1.313 -22.75,31.5t-8.75,59.063q 0.438,3.938 4.375,7t 8.969,4.813t 9.844,5.688t 6.563,9.188q 2.188,8.313 1.313,10.938t-3.719,5.906t-3.281,5.469
q-0.438,1.313 1.969,4.375t 2.406,11.375q0,5.688 3.5,12.906t 9.844,10.281t 15.531-6.563q 3.5-3.938 8.969-6.781t 14.219-5.906t 12.25-4.813q 4.813-2.188 8.313-9.188q 29.313-10.938 52.063-10.938q 7,0 17.063,12.25t 14,13.563q 13.563,4.813 21.438-13.125q 6.563-15.313 0.875-24.5q-1.75-3.063 -5.688-3.063zM 289.625,175.75q 0.875,3.063 0.438,5.906t 0.219,5.25t 2.844,2.844q 4.813,0.875 15.094-4.156t 13.344-12.031q 2.625-6.563 -7.875-20.125
q-4.375-5.688 -0.875-8.094t 8.75,0.219q 6.563,3.063 14.875,11.594t 14.875,14t 12.25,4.156q 9.625-2.188 20.125-10.938t 15.75-22.313q 3.938-9.625 4.156-23.406t-5.031-21.219q-7-7.438 -25.594-8.969t-22.094-2.844q-9.625-4.375 -15.75-10.938t-9.625-11.375t-7.875-6.125q-7.438-1.75 -14.438-1.969t-11.156,0.219t-12.469,1.969t-12.25,1.969q-14,1.75 -19.906,14t-0.656,24.5q 1.75,4.813 6.125,9.188t 6.563,7t 0.875,4.813
t-9.188,1.75t-9.625,1.313q-6.125,8.313 0.875,25.375q 3.938,8.75 14.656,13.125t 20.563,7.219t 12.031,8.094zM 187.688,118.875q-1.313-2.188 0.875-4.813t 6.563-7t 6.125-9.188q 5.25-12.25 -0.656-24.5t-19.906-14q-3.938-0.438 -12.25-1.969t-12.469-1.969t-11.156,0t-14.438,1.75q-4.375,1.313 -7.875,6.125t-9.625,11.375t-15.75,10.938q-3.5,1.313 -22.094,2.844t-25.156,8.969q-5.688,7.438 -5.469,21.219t 4.156,23.406q 5.25,13.563 15.75,22.313t 20.125,10.938
q 5.688,1.313 12.25-4.156t 14.875-14t 14.875-11.594q 5.25-2.625 8.75-0.438t-0.875,8.313q-10.5,13.563 -7.875,20.125q 3.063,7 13.344,12.031t 15.094,4.156q 2.625-0.438 3.063-2.844t0-5.25t 0.438-5.906q 2.188-5.25 12.25-7.875t 20.563-7.219t 14.438-13.344q 7-17.063 0.875-25.375q-1.313-1.75 -9.406-1.313t-9.406-1.75zM 177.188,205.062q-6.563-0.875 -10.063,1.094t-7.438,6.781q-1.75,2.625 -8.75,14t-12.688,15.75q-2.625,2.188 -13.781,5.688t-15.094,8.75
q-4.375,6.125 -9.188,24.938q-1.313,4.375 -4.813,12.688t-4.813,12.25q-8.313,8.313 -15.969,12.688t-19.031,4.813l-47.688,0 q-9.188,0 -7.875,15.313q 1.313,17.5 12.25,24.063q 5.688,3.5 12.25,1.313q 3.938-1.313 14-13.563t 17.063-12.25q 22.75,0 52.063,10.938q 3.5,7 8.313,9.188q 3.5,1.75 12.25,4.813t 14.219,5.906t 8.969,6.781q 9.188,9.625 15.531,6.563t 9.844-10.281t 3.5-12.906q0-8.313 2.406-11.375t 1.969-4.375q-0.438-2.625 -3.281-5.688t-3.719-5.688
t 1.313-10.938q 1.75-5.25 6.563-9.188t 9.844-5.906t 8.969-4.813t 4.375-6.781q 2.188-28.875 -8.75-59.063t-22.75-31.5zM 59.719,234.812q 12.469,0 21.219-4.375t 8.75-10.719t-8.75-10.719t-21.219-4.375t-21.219,4.375t-8.75,10.719t 8.75,10.719t 21.219,4.375zM 119,24.812q 4.813,1.75 12.25-4.375t 13.125-5.25q 3.5,0.438 7.656,2.406t 8.094,1.531q 3.063,0 6.563-5.688t 7.656-10.719t 9.844-3.719q 14.875,2.625 23.188-3.5
q 3.5-2.188 -0.656-13.344t-12.469-21.438t-15.094-10.063t-10.938,3.063t-5.25,4.375t-6.344-0.219q-4.813-2.188 -4.813-4.156t 2.406-3.5t 4.594-3.5t 0.875-3.719q-1.75-3.938 -9.406-5.688t-12.469-1.313q-8.313,0.438 -20.781,10.5t-15.969,12.25q-12.688,6.563 -11.375,45.938q0,5.688 4.813,9.844t 9.188,5.906t 12.688,3.938q 1.75,0.438 2.625,0.438zM 263.813-1q 4.375-0.875 8.094,1.969t 5.906,6.781t 4.813,7.656t 5.25,3.719
q 3.938,0.438 8.094-1.531t 7.656-2.406q 5.688-0.875 13.125,5.25t 12.25,4.375q 0.875,0 2.625-0.438q 8.313-2.188 12.688-3.938t 9.188-5.906t 4.813-9.844q 1.313-39.375 -11.375-45.938q-3.5-2.188 -15.969-12.25t-20.781-10.5q-4.813-0.438 -12.469,1.531t-9.406,5.469q-0.875,1.75 0.438,3.281t 3.281,2.625t 3.5,2.406t 0.656,3.063t-4.813,3.5q-5.25,1.75 -6.344,0.219t-5.25-4.375t-10.938-3.063t-15.094,10.063t-12.469,21.438t-0.656,13.344
q 8.313,6.125 23.188,3.5zM 358.313,219.719q0,6.344 8.75,10.719t 21.219,4.375t 21.219-4.375t 8.75-10.719t-8.75-10.719t-21.219-4.375t-21.219,4.375t-8.75,10.719z" data-tags="rorschach" />
<glyph unicode="&#xf357;" d="M 420,132l-4.375,0 q-6.563-50.75 -21.438-84q-15.75-35 -42.656-61.031t-55.781-38.5t-56.438-12.469t-56.438,12.25t-56,38.281t-42.875,61.469q-14.875,32.813 -21.875,84l-6.125,0 q-11.375,0 -19.688,8.094t-8.313,19.906l0,84 q0,11.813 8.313,19.906t 19.688,8.094l 3.938,0 q 12.688,48.125 63.438,80.063t 115.938,31.938t 114.844-31.719t 62.344-80.281l 3.5,0 q 11.375,0 19.688-8.094t 8.313-19.906l0-84 
q0-11.813 -8.313-19.906t-19.688-8.094zM 108.063,62q 6.125-14 11.375-24.281t 12.906-21.875t 16.844-17.719t 18.813-6.125q 11.813,0 24.281,7t 24.063,14t 21.656,7q 9.625,0 21.438-7t 24.281-14t 24.281-7q 17.063,0 33.469,21t 28.656,49q 12.25,27.563 17.5,70l-297.5,0 q 6.125-42.438 17.938-70zM 378,216l-280,0 q-5.688,0 -9.844-4.156t-4.156-9.844t 4.156-9.844t 9.844-4.156
l 280,0 q 5.688,0 9.844,4.156t 4.156,9.844t-4.156,9.844t-9.844,4.156z" data-tags="robocop" />
<glyph unicode="&#xf356;" d="M 317.188,97.875q 2.625,4.375 3.938,6.125l 96.688,168q 30.188-52.063 30.188-112q0-12.25 -1.75-27.563zM 333.813,181.875l-1.75,7l-49.875,187.25q 72.188-19.25 118.125-78.313zM 286.125,253.187q-4.813,3.063 -6.125,3.938l-168,96.688q 52.063,30.188 112,30.188q 12.25,0 27.563-1.75zM 202.125,269.812l-7-1.75l-187.25-49.875q 19.25,72.188 78.313,118.125zM 130.813,222.125q-3.063-4.813 -3.938-6.125l-96.688-168q-30.188,52.063 -30.188,112q0,12.25 1.75,27.563
zM 114.188,138.125q 1.313-5.688 1.75-7l 49.875-187.25q-72.188,19.25 -118.125,78.313zM 161.875,66.812q 4.813-3.063 6.125-3.938l 168-96.688q-52.063-30.188 -112-30.188q-12.25,0 -27.563,1.75zM 245.875,50.187q 6.125,1.313 7,1.75l 187.25,49.875q-19.25-72.188 -78.313-118.125z" data-tags="aperture" />
<glyph unicode="&#xf355;" d="M 252,77.75l0-85.75 l-28-56l-28,56l0,85.75 q-46.813,6.125 -85.313,29.313t-60.594,59.281t-22.094,77.656q0,24.5 8.969,50.75t 28.656,51.188t 46.375,38.063q-56-68.688 -56-105q0-54.25 40.031-95.156t 99.969-49.656l0,53.813 l 28,56l 28-56l0-53.813 q 59.938,8.75 99.969,49.656t 40.031,95.156q0,36.313 -56,105q 26.688-13.125 46.375-38.063t 28.656-51.188
t 8.969-50.75q0-41.563 -22.094-77.656t-60.594-59.281t-85.313-29.313z" data-tags="quake" />
<glyph unicode="&#xf354;" d="M 224-64q-45.5,0 -87.063,17.719t-71.531,47.688t-47.688,71.531t-17.719,87.063t 17.719,87.063t 47.688,71.531t 71.531,47.688t 87.063,17.719t 87.063-17.719t 71.531-47.688t 47.688-71.531t 17.719-87.063t-17.719-87.063t-47.688-71.531t-71.531-47.688t-87.063-17.719zM 224-36q 48.563,0 90.563,22.094t 69.344,60.594t 33.906,85.313l-115.063,0 q-8.75-24.938 -30.188-40.469
t-48.563-15.531t-48.563,15.531t-30.188,40.469l-115.063,0 q 7-46.813 34.125-85.313t 69.125-60.594t 90.563-22.094zM 280,160q0,23.188 -16.406,39.594t-39.594,16.406t-39.594-16.406t-16.406-39.594t 16.406-39.594t 39.594-16.406t 39.594,16.406t 16.406,39.594zM 400.75,244l-8.75,0 l0,16.188 q-3.938,6.563 -7.438,11.813l-20.563,0 l0,24.938 l-1.531,1.531l-1.531,1.531l-24.938,0 l0,20.563 q-7,4.813 -10.938,7.438l-17.063,0 
l0,9.188 q-13.563,6.125 -28,10.5l0-19.688 l-28,0 l0,25.813 q-15.313,2.188 -28,2.188l0-28 l-28,0 l0,25.813 q-14.875-2.188 -28-6.125l0-19.688 l-28,0 l0,9.188 q-9.188-4.375 -17.063-9.188l 17.063,0 l0-28 l-28,0 l0,20.563 q-13.125-9.188 -24.938-20.563l 24.938,0 l0-28 l-28,0 l0,24.938 q-10.938-11.375 -20.563-24.938l 20.563,0 l0-28 l-28,0 l0,16.188 q-4.813-7.875 -8.75-16.188l 8.75,0 l0-28 l-19.25,0 q-4.813-15.313 -6.563-28l 25.813,0 l0,28 l 28,0 l0-28 l 28,0 l0,28 l 28,0 l0-28 l 5.25,0 q 5.25,15.313 16.625,28
l-21.875,0 l0,28 l 28,0 l0-21.875 q 12.688,11.375 28,17.063l0,4.813 l 28,0 q 14,0 28-4.813l0,4.813 l 28,0 l0-21.875 q 3.063-2.625 6.125-6.125l 21.875,0 l0-28 l 28,0 l0,28 l 28,0 l0-28 l 28,0 l0,28 l 19.25,0 q-3.938,14.438 -10.5,28zM 364,216l0,28 l 28,0 l0-28 l-28,0 zM 336,244l0,28 l 28,0 l0-28 l-28,0 zM 308,272l0,28 l 28,0 l0-28 l-28,0 zM 280,300l0,28 l 28,0 l0-28 l-28,0 zM 224,300l0,28 l 28,0 l0-28 l-28,0 zM 168,300l0,28 l 28,0 l0-28 l-28,0 z
M 168,272l-28,0 l0,28 l 28,0 l0-28 zM 140,244l-28,0 l0,28 l 28,0 l0-28 zM 112,216l-28,0 l0,28 l 28,0 l0-28 zM 196,272l0-28 l-28,0 l0,28 l 28,0 zM 252,272l0-28 l-28,0 l0,28 l 28,0 zM 308,272l0-28 l-28,0 l0,28 l 28,0 zM 336,244l0-28 l-28,0 l0,28 l 28,0 zM 252,272l0,28 l 28,0 l0-28 l-28,0 zM 196,272l0,28 l 28,0 l0-28 l-28,0 zM 196,159.781q0,11.594 8.313,19.906t 19.906,8.313t 19.688-8.094
t 8.094-19.906t-8.094-19.906t-19.688-8.094t-19.906,8.094t-8.313,19.688z" data-tags="pokemon" />
<glyph unicode="&#xf353;" d="M 448-36q-4.813,2.188 -13.344,6.344t-34.563,18.375t-51.625,29.531t-60.156,39.375t-64.313,48.563q-29.75-24.5 -63.875-48.344t-61.25-40.031t-50.313-28.875t-35.656-18.813t-12.906-6.125q 4.375,3.938 12.25,11.156t 29.969,29.531t 42,44.188t 43.531,52.281t 39.813,56.656q-74.375,74.813 -136.938,166.25l-2.625,3.938q 3.5-3.5 10.281-9.844t 28-23.625t 43.094-31.938t 53.375-31.063t 61.25-25.594
q 29.75,9.188 60.813,24.938t 54.25,32.156t 42.219,31.281t 28.656,24.063l 10.063,9.625q-6.563-10.063 -18.813-27.125t-48.781-62.125t-71.969-80.938q 16.188-26.25 39.375-56t 44.844-53.375t 40.906-43.094t 30.844-30.406z" data-tags="xbox" />
<glyph unicode="&#xf364;" d="M 412.781-28.781q-21.656-21.656 -20.781-35.219q-2.625,0 -5.031,2.625t-5.031,6.344t-3.938,5.031q-1.75,1.75 -3.938,7.219t-5.25,14t-5.688,14.656q-37.188-25.375 -83.125-21.219t-78.75,36.969l-135.625,135.625q-32.813,32.813 -36.969,78.75t 21.219,83.125q-6.125,2.625 -14.656,5.688t-14,5.25t-7.219,3.938q-1.313,1.313 -5.031,3.938t-6.344,5.031t-2.625,5.031q 14-0.875 35.438,20.563q 21.438,21.875 20.563,35.438
q 2.625,0 5.031-2.625t 5.031-6.344t 3.938-5.031q 1.75-1.75 3.938-7.219t 5.25-14t 5.688-14.656q 37.188,25.375 83.125,21.219t 78.75-36.969l 135.625-135.625q 32.813-32.813 36.969-78.75t-21.219-83.125q 6.125-2.625 14.656-5.688t 14-5.25t 7.219-3.938q 1.313-1.313 5.031-3.719t 6.344-5.031t 2.625-5.25q-13.563,0.875 -35.219-20.781z" data-tags="pepperoni" />
<glyph unicode="&#xf365;" d="M 392,85.187q0-70 -13.781-109.594t-42.219-39.594q-19.688,0 -40.031,4.375t-36.75,11.156t-35.219,14.438t-35.219,14.219t-36.75,11.156t-40.031,4.594q-27.563,0 -49.875,16.188t-35.438,42.656t-19.906,57.313t-6.781,62.781q0,13.125 8.531,28.875t 18.156,27.125t 24.063,26.906t 19.25,21.656q 7.438,9.625 17.719,29.313t 18.156,35.219t 20.781,27.781t 27.344,12.25q 23.188,0 59.938-8.969t 77-25.375
t 75.688-36.313t 58.406-45.063t 22.969-48.344q0-21 -5.688-39.813t-14-31.719t-16.625-24.063t-14-21t-5.688-18.156zM 168,356q-12.688,0 -24.938-10.719t-19.906-24.063t-17.5-31.063t-16.406-25.594q-4.375-5.25 -17.063-19.031t-21-23.625t-15.75-23.625t-7.438-25.156q0-28 5.906-54.469t 17.5-49t 30.844-36.094t 43.75-13.563q 20.125,0 41.125-5.688t 38.938-14l 35.875-16.625
t 38.938-14t 41.125-5.688q 12.25,0 20.781,10.5t 13.125,30.625t 6.344,43.531t 1.75,55.344q0,7 5.688,14.656t 14,15.969t 16.625,18.375t 14,25.594t 5.688,33.469q0,20.563 -20.781,42.656t-52.063,39.594t-66.063,31.719t-65.406,22.094t-47.688,7.875zM 196,76q-35,0 -59.5,24.5t-24.5,59.5t 24.5,59.5t 59.5,24.5t 59.5-24.5t 24.5-59.5t-24.5-59.5t-59.5-24.5z" data-tags="sunnysideup" />
<glyph unicode="&#xf366;" d="M 405.563-13.25q-3.938,19.688 -48.563,74.813t-110.469,120.969t-120.969,110.469t-74.813,48.563q 36.75,34.125 91.656,41.125t 113.969-15.094t 106.094-69.125t 69.125-106.094t 15.094-113.969t-41.125-91.656zM 201.469,137.469q 65.844-65.844 120.969-110.469t 74.813-48.563q-36.75-34.125 -91.656-41.125t-113.969,15.094t-106.094,69.125t-69.125,106.094t-15.094,113.969
t 41.125,91.656q 3.938-19.688 48.563-74.813t 110.469-120.969z" data-tags="coffeebean" />
<glyph unicode="&#xf367;" d="M 420,20l-163.625,0 q 15.75-7.875 21-16.844t 1.313-17.063t-9.844-15.094t-10.281-13.563t-2.625-10.063q-6.563-11.375 -13.563-11.375q-3.063,0 -15.531,11.156t-29.313,25.375t-27.344,19.469l-142.188,0 q-11.375,0 -19.688,8.313t-8.313,19.688l0,28 l0,196 l0,28 q0,11.813 8.094,19.906t 19.906,8.094l 112,0 q 19.25,0 37.844,8.75t 29.75,19.25t 20.125,19.25t 10.719,8.75q 3.5,0 5.906-0.438t 5.031-3.719t 2.625-9.844
q-13.563-23.625 -13.563-56q0-5.688 0.875-14l 180.688,0 q 11.375,0 19.688-8.094t 8.313-19.906l0-196 q0-11.813 -8.094-19.906t-19.906-8.094zM 190.313,272l-162.313,0 l0-252 l 162.313,0 q-2.625,2.188 -6.344,5.906t-9.844,14.656t-6.125,21.438q0,10.938 4.156,19.25t 18.156,22.75q 6.125,6.563 6.125,16.188t-4.375,20.344t-9.844,21.219t-9.844,21.656t-4.375,18.594q0,16.188 5.469,33.688t 11.156,26.688zM 294,244
l-56,0 q-5.688,0 -9.844-4.156t-4.156-9.844l0-56 q0-5.688 4.156-9.844t 9.844-4.156t 9.844,4.156t 4.156,9.844l0,42 l 42,0 q 5.688,0 9.844,4.156t 4.156,9.844t-4.156,9.844t-9.844,4.156zM 294,132l-56,0 q-5.688,0 -9.844-4.156t-4.156-9.844l0-56 q0-5.688 4.156-9.844t 9.844-4.156t 9.844,4.156t 4.156,9.844l0,42 l 42,0 q 5.688,0 9.844,4.156t 4.156,9.844
t-4.156,9.844t-9.844,4.156zM 406,244l-56,0 q-5.688,0 -9.844-4.156t-4.156-9.844l0-56 q0-5.688 4.156-9.844t 9.844-4.156t 9.844,4.156t 4.156,9.844l0,42 l 42,0 q 5.688,0 9.844,4.156t 4.156,9.844t-4.156,9.844t-9.844,4.156zM 406,132l-56,0 q-5.688,0 -9.844-4.156t-4.156-9.844l0-56 q0-5.688 4.156-9.844t 9.844-4.156t 9.844,4.156t 4.156,9.844l0,42 
l 42,0 q 5.688,0 9.844,4.156t 4.156,9.844t-4.156,9.844t-9.844,4.156z" data-tags="chocolate" />
<glyph unicode="&#xf368;" d="M 448,188q0-21 -13.781-36.75t-34.344-18.375q 20.125-17.063 20.125-42.875q0-23.188 -16.406-39.594t-39.594-16.406l-1.094,0 l-1.094,0 q 2.188-7.438 2.188-14q0-23.188 -16.406-39.594t-39.594-16.406q-17.063,0 -31.5,9.625q-5.688-16.625 -20.125-27.125t-32.375-10.5t-32.375,10.5t-20.125,27.125q-14.438-9.625 -31.5-9.625q-23.188,0 -39.594,16.406t-16.406,39.594q0,6.563 2.188,14l-1.094,0 l-1.094,0 
q-23.188,0 -39.594,16.406t-16.406,39.594q0,25.813 20.125,42.875q-20.563,2.625 -34.344,18.375t-13.781,36.75q0,23.188 16.406,39.594t 39.594,16.406q 2.625,0 8.313-0.875q-8.313,13.563 -8.313,28.875q0,23.188 16.406,39.594t 39.594,16.406q 7,0 14-2.188q 3.5,1.313 7.438,1.75q-21.438,18.813 -21.438,48.125q 12.688,8.313 27.563,8.531t 28.438-8.094q 12.25-7.875 19.688-21.875q0,0.438 0.656,1.531t 0.656,1.531q 7.875,13.563 22.094,20.344
t 30.844,6.344q 11.375-17.063 9.625-35.875q 3.938-2.188 4.813-3.063q 7.438,20.563 23.625,30.625q 13.563,8.75 28.438,8.531t 27.563-8.531q0-29.75 -21.875-48.563q 12.688-1.75 21.875-7q 13.563,7.875 28,7.875q 23.188,0 39.594-16.406t 16.406-39.594q0-17.063 -9.625-31.5q 16.625-5.688 27.125-20.125t 10.5-32.375zM 364.219,76q 11.594,0 19.688,8.094t 8.094,19.688t-8.094,19.906t-19.688,8.313t-19.906-8.313t-8.313-19.906t 8.313-19.688
t 19.906-8.094zM 308.219-8q 11.594,0 19.688,8.094t 8.094,19.688t-8.094,19.906t-19.688,8.313t-19.906-8.313t-8.313-19.906t 8.313-19.688t 19.906-8.094zM 280,103.781q0,11.594 -8.094,19.906t-19.906,8.313t-19.906-8.313t-8.094-19.906t 8.313-19.688t 19.906-8.094t 19.688,8.094t 8.094,19.688zM 224.219-36q 11.594,0 19.688,8.094t 8.094,19.688t-8.094,19.906t-19.688,8.313
t-19.906-8.313t-8.313-19.906t 8.313-19.688t 19.906-8.094zM 196,103.781q0,11.594 -8.094,19.906t-19.688,8.313t-19.906-8.313t-8.313-19.906t 8.313-19.688t 19.906-8.094t 19.688,8.094t 8.094,19.688zM 140.219-8q 11.594,0 19.688,8.094t 8.094,19.688t-8.094,19.906t-19.688,8.313t-19.906-8.313t-8.313-19.906t 8.313-19.688t 19.906-8.094zM 84.219,76q 11.594,0 19.688,8.094t 8.094,19.688
t-8.094,19.906t-19.688,8.313t-19.906-8.313t-8.313-19.906t 8.313-19.688t 19.906-8.094zM 56.219,216q-11.594,0 -19.906-8.313t-8.313-19.906t 8.313-19.688t 19.906-8.094t 19.688,8.094t 8.094,19.688t-8.094,19.906t-19.688,8.313zM 112.219,300q-11.594,0 -19.906-8.313t-8.313-19.906t 8.313-19.688t 19.906-8.094t 19.688,8.094t 8.094,19.688t-8.094,19.906t-19.688,8.313zM 140.219,216
q-11.594,0 -19.906-8.313t-8.313-19.906t 8.313-19.688t 19.906-8.094t 19.688,8.094t 8.094,19.688t-8.094,19.906t-19.688,8.313zM 196.219,300q-11.594,0 -19.906-8.313t-8.313-19.906t 8.313-19.688t 19.906-8.094t 19.688,8.094t 8.094,19.688t-8.094,19.906t-19.688,8.313zM 224.219,216q-11.594,0 -19.906-8.313t-8.313-19.906t 8.313-19.688t 19.906-8.094t 19.688,8.094t 8.094,19.688
t-8.094,19.906t-19.688,8.313zM 280.219,272q-11.594,0 -19.906-8.313t-8.313-19.906t 8.313-19.688t 19.906-8.094t 19.688,8.094t 8.094,19.688t-8.094,19.906t-19.688,8.313zM 308.219,188q-11.594,0 -19.906-8.313t-8.313-19.906t 8.313-19.688t 19.906-8.094t 19.688,8.094t 8.094,19.688t-8.094,19.906t-19.688,8.313zM 364.219,300q-11.594,0 -19.906-8.313t-8.313-19.906t 8.313-19.688
t 19.906-8.094t 19.688,8.094t 8.094,19.688t-8.094,19.906t-19.688,8.313zM 392,216q-11.813,0 -19.906-8.313t-8.094-19.906t 8.094-19.688t 19.906-8.094t 19.906,8.094t 8.094,19.688t-8.094,19.906t-19.906,8.313z" data-tags="raspberry" />
<glyph unicode="&#xf369;" d="M 392,118q0-19.25 -7.656-35.219t-20.344-25.156q 1.313-36.313 -28-65.188q-26.25-26.25 -59.938-28q-7-12.25 -25.156-20.344t-40.906-8.094t-40.906,8.094t-25.156,20.344q-33.688,1.75 -59.938,28q-29.313,28.875 -28,65.188q-12.688,9.188 -20.344,25.156t-7.656,35.219q0,19.688 8.313,36.313t 21.875,25.375q-4.813,16.188 0.875,35t 20.563,33.688q 13.125,12.688 30.188,19.25q-21,10.938 -35.656,32.156
t-18.156,44.406q 12.25,18.375 32.594,29.094t 44.406,10.719t 44.406-10.719t 32.594-29.094q 12.25,18.375 32.594,29.094t 44.406,10.719t 44.406-10.719t 32.594-29.094q-3.5-23.188 -18.156-44.406t-36.094-32.156q 17.5-6.563 30.625-19.25q 14.875-14.875 20.563-33.688t 0.875-35q 13.563-8.75 21.875-25.375t 8.313-36.313zM 277.375-6.25q 21.438,4.375 37.625,19.688q 13.563,12.688 18.156,23.625t 1.969,19.25t-11.375,16.625
q-6.563,5.688 -14.438,10.063l-0.438-0.438t-0.875-0.438q-5.688-3.063 -14-4.813l0-0.438 l0-0.875 q0-35 -24.938-59.5q 5.688-13.563 8.313-22.75zM 299.25,159.125q-10.063,16.625 -29.094,24.719t-32.375,1.094t-13.781-28.219t 11.813-31.719q 17.938-15.75 34.781-19.906t 25.156,4.156q 11.375,10.5 12.25,21.875t-8.75,28zM 210-36q 17.5,0 29.75,8.094t 12.25,19.906q0,4.813 -3.063,10.063q-18.813-10.063 -38.938-10.063t-38.938,10.063
q-3.063-5.25 -3.063-10.063q0-11.813 12.25-19.906t 29.75-8.094zM 210,20q 22.313,0 39.156,13.563t 16.844,28.438q0,7 -2.625,16.625q-33.688,8.75 -53.375,38.938q-19.688-30.188 -53.375-38.938q-2.625-9.188 -2.625-16.625q0-14.875 16.844-28.438t 39.156-13.563zM 182.219,184.937q-13.344,7 -32.375-1.094t-29.094-24.719q-9.625-16.625 -8.75-28t 12.25-21.875q 8.313-8.313 25.156-4.156t 34.781,19.906q 12.25,10.5 11.813,31.719
t-13.781,28.219zM 105,13.437q 16.188-15.313 37.625-19.688q 2.625,9.188 8.313,22.75q-24.938,24.5 -24.938,59.5l0,0.875 l0,0.438 q-7.875,1.75 -14,4.813q-0.438,0 -0.875,0.438l-0.438,0.438q-7.875-4.375 -14.438-10.063q-8.75-8.313 -11.375-16.625t 1.969-19.25t 18.156-23.625zM 56,118q0-17.938 7.875-32.375q 3.063,4.375 5.688,7q 7.875,7.875 21.438,10.063q-14,25.813 -0.875,56.875q-4.375,0.438 -6.125,0.438q-12.688,0 -20.344-10.063t-7.656-31.938zM 102.375,225.625
q-16.625-16.625 -18.375-37.625q 10.5,0 20.563-5.25q 19.25,23.625 46.813,30.625q-10.938,13.563 -11.375,30.188q-21-1.75 -37.625-17.938zM 135.625,356q-14,0 -30.188-4.375t-21.438-9.625q 3.5-19.688 21-37.844t 38.938-18.156q 8.313,0 16.188,1.75q-3.5,6.563 -8.531,13.344t-11.375,13.344t-10.281,10.719t-10.5,10.063t-7.438,6.781q 22.313-3.063 42.438-14t 33.688-27.125q 5.25,4.375 7.875,7.875l0,0.438 q0,19.688 -17.719,33.25t-42.656,13.563zM 210,272
q-17.5,0 -29.75-12.25t-12.25-29.75q0-7 2.625-14q 14,0 25.375-6.125q 7.438-3.5 14-10.938q 6.563,7.438 14,10.938q 11.375,6.125 25.375,6.125q 2.625,7.438 2.625,14q0,17.5 -12.25,29.75t-29.75,12.25zM 336,342q-5.25,5.25 -21.438,9.625t-29.75,4.375q-25.375,0 -43.094-13.563t-17.719-33.25l0-0.438 q 2.625-3.5 7.875-7.875q 13.563,16.188 33.688,27.125t 42.438,14q-0.875-0.875 -7.438-6.781t-10.5-10.063t-10.281-10.719t-11.375-13.344
t-8.531-13.344q 7.875-1.75 16.188-1.75q 21.438,0 38.938,18.156t 21,37.844zM 317.625,225.625q-16.625,16.188 -37.625,17.938q0-16.625 -11.375-30.188q 27.563-7 46.813-30.625q 10.063,5.25 20.563,5.25q-1.75,21 -18.375,37.625zM 336,160q-1.75,0 -6.125-0.438q 13.125-31.063 -0.875-56.875q 13.563-2.188 21.438-10.063q 2.625-2.188 5.688-7q 7.875,14.438 7.875,32.375q0,42 -28,42z" data-tags="raspberrypi" />
<glyph unicode="&#xf36a;" d="M 447.563,181.875l-45.5-224q-1.313-9.188 -10.938-15.531t-21.438-6.344l-287.875,0 q-11.813,0 -21.438,6.344t-11.375,15.531l-48.563,224q-2.188,11.375 2.844,20.563t 15.094,13.563q 27.125-11.813 83.344-19.906t 122.719-8.094q 66.063,0 121.844,7.875t 82.906,20.125q 10.063-4.375 15.094-13.563t 3.281-20.563zM 364,342l 56,14l0-115.5 q-21.438-7.875 -56-13.563l0,115.063 zM 280.438,383.562l 55.563-28l0-133 
q-26.688-3.063 -55.563-4.813l0,165.813 zM 196.438,216.437l0,153.125 l 56,14l0-167.125 q-16.625-0.438 -28.219-0.438t-27.781,0.438zM 112.438,369.562l 56,14l0-165.813 q-29.313,1.313 -56,4.813l0,147 zM 28.438,328l 56,28l0-129.063 q-34.563,5.688 -56,13.125l0,87.938 z" data-tags="fries" />
<glyph unicode="&#xf36b;" d="M 434-64l-420,0 q-5.688,0 -9.844,4.156t-4.156,9.844t 4.156,9.844t 9.844,4.156l 14,0 l0,168 q0,23.188 16.406,39.594t 39.594,16.406l 280,0 q 23.188,0 39.594-16.406t 16.406-39.594l0-168 l 14,0 q 5.688,0 9.844-4.156t 4.156-9.844t-4.156-9.844t-9.844-4.156zM 350,300q 5.688,0 9.844-4.156t 4.156-9.844l0-70 l-56,0 l0,70 q0,5.688 4.156,9.844t 9.844,4.156l 28,0 z
M 340.813,314q 9.188,8.313 9.188,17.5q0,3.063 -3.281,8.531t-6.344,9.406l-3.063,3.938q-3.063-16.188 -13.125-21.875q-3.063-2.625 -1.969-7.656t 4.594-9.844q-3.938,0 -13.125,7.875q-5.688,5.25 -5.688,11.813q0,9.625 9.625,17.5q 4.375,3.938 5.688,12.031t0,14.656l-1.313,6.125q 22.75-8.75 33.688-23.625q 8.75-12.25 8.313-24.5q-0.438-13.563 -2.188-15.313q-3.063-2.625 -9.844-4.594t-11.156-1.969zM 238,300q 5.688,0 9.844-4.156
t 4.156-9.844l0-70 l-56,0 l0,70 q0,5.688 4.156,9.844t 9.844,4.156l 28,0 zM 228.813,314q 9.188,8.313 9.188,17.5q0,3.063 -3.281,8.531t-6.344,9.406l-3.063,3.938q-3.063-16.188 -13.125-21.875q-3.063-2.625 -1.969-7.656t 4.594-9.844q-3.938,0 -13.125,7.875q-5.688,5.25 -5.688,11.813q0,9.625 9.625,17.5q 4.375,3.938 5.688,12.031t0,14.656l-1.313,6.125q 22.75-8.75 33.688-23.625q 8.75-12.25 8.313-24.5q-0.438-13.563 -2.188-15.313
q-3.063-2.625 -9.844-4.594t-11.156-1.969zM 126,300q 5.688,0 9.844-4.156t 4.156-9.844l0-70 l-56,0 l0,70 q0,5.688 4.156,9.844t 9.844,4.156l 28,0 zM 116.813,314q 9.188,8.313 9.188,17.5q0,3.063 -3.281,8.531t-6.344,9.406l-3.063,3.938q-3.063-16.188 -13.125-21.875q-3.063-2.625 -1.969-7.656t 4.594-9.844q-3.938,0 -13.125,7.875q-5.688,5.25 -5.688,11.813q0,9.625 9.625,17.5q 4.375,3.938 5.469,12.031
t 0.219,14.656l-1.313,6.125q 22.75-8.75 33.688-23.625q 8.75-12.25 8.313-24.5q-0.438-13.563 -2.188-15.313q-3.063-2.625 -9.844-4.594t-11.156-1.969z" data-tags="birthday" />
<glyph unicode="&#xf36c;" d="M 354.375,57.625q-53.813-53.375 -129.5-63.438l0-30.188 l 42,0 q 5.688,0 9.844-4.156t 4.156-9.844t-4.156-9.844t-9.844-4.156l-140,0 q-5.688,0 -9.844,4.156t-4.156,9.844t 4.156,9.844t 9.844,4.156l 42,0 l0,30.188 q-76.563,9.188 -130.813,63.438l-10.063,10.063l 40.25,40.25q-38.938,46.813 -38.938,107.625q0,45.5 22.313,84.219t 61.031,61.25t 84.219,22.531q 60.813,0 107.625-39.375l 39.813,39.813l 10.063-10.063
q 42.875-42.875 58.188-100.406t0-115.063t-58.188-100.844zM 343.875,344.187q-5.688-6.125 -19.688-19.688q 40.25-47.25 40.25-108.938q0-45.5 -22.313-84.219t-61.031-61.031t-84.219-22.313q-61.688,0 -108.938,40.25q-3.5-3.5 -19.688-20.125q 37.625-32.813 85.969-43.531t 96.25,3.063t 84,49.875t 49.875,84t 3.063,96.25t-43.531,86.406z" data-tags="globe" />
<glyph unicode="&#xf36d;" d="M 364-22q-1.313-15.75 -14.219-28.875t-27.781-13.125l-196,0 q-14.875,0 -27.781,13.125t-14.219,28.875l-28,182q0,21.438 12.25,38.719t 29.75,17.281l 24.938,0 q-10.938,20.563 -10.938,28q0,6.125 16.188,14.438t 39.813,15.75q 0.875,17.5 8.094,42.656t 20.563,46.156t 27.344,21t 27.344-21t 20.563-46.156t 8.094-42.656q 23.625-7.438 39.813-15.75t 16.188-14.438q0-7.438 -10.938-28l 24.938,0 q 17.5,0 29.75-17.281t 12.25-38.719z
" data-tags="glue" />
<glyph unicode="&#xf36e;" d="M 224-64q-45.5,0 -87.063,17.719t-71.531,47.688t-47.688,71.531t-17.719,87.063t 17.719,87.063t 47.688,71.531t 71.531,47.688t 87.063,17.719t 87.063-17.719t 71.531-47.688t 47.688-71.531t 17.719-87.063t-17.719-87.063t-47.688-71.531t-71.531-47.688t-87.063-17.719zM 182,328q-52.063,0 -89.031-36.969t-36.969-89.031t 36.969-89.031t 89.031-36.969
t 89.031,36.969t 36.969,89.031t-36.969,89.031t-89.031,36.969zM 223.125,195.437q 3.063-21 -8.531-38.5t-32.156-23.188q-22.313-5.688 -42.438,5.906t-26.25,33.906q-4.813,18.813 2.844,36.313t 24.281,26.688q-3.063,21 8.531,38.5t 32.156,23.188q 22.313,5.688 42.438-5.906t 26.25-33.906q 4.813-18.813 -2.844-36.313t-24.281-26.688zM 160.563,215.125q-10.938-3.063 -16.844-13.125t-2.844-21.219t 13.125-17.063
t 21.219-2.844t 17.063,13.125t 2.844,21.438q-0.875,3.063 -2.844,3.938t-5.031,1.094t-5.25,1.531t-6.344,5.469t-7.875,6.344t-7.219,1.313zM 223.125,251.437q-3.063,10.938 -13.125,16.844t-21.438,2.844q-9.625-2.625 -15.313-10.719t-5.25-18.156q 10.063-1.75 28-12.25q 10.063-5.688 14.875-9.625q 7.438,4.813 10.938,13.344t 1.313,17.719z" data-tags="eightball" />
<glyph unicode="&#xf36f;" d="M 224-64q-60.813,0 -112.438,29.969t-81.594,81.594t-29.969,112.438q0,45.5 17.719,87.063t 47.688,71.531t 71.531,47.688t 87.063,17.719t 87.063-17.719t 71.531-47.688t 47.688-71.531t 17.719-87.063t-17.719-87.063t-47.688-71.531t-71.531-47.688t-87.063-17.719zM 265.125,26.125q 30.188,9.188 54.25,31.5q-22.313,27.563 -36.75,36.313q-12.688,7 -27.125,11.375q-3.5-14.438 -3.5-29.313
q0-16.625 13.125-49.875zM 182.875,26.125q 13.125,33.25 13.125,49.875q0,14.438 -3.5,29.313q-14.875-4.375 -27.125-11.375q-14.438-8.313 -36.75-36.313q 24.063-22.313 54.25-31.5zM 84,160q0-14 3.938-31.5q 35,5.25 49.438,13.563q 13.125,7.875 23.625,17.5q-10.938,10.938 -23.625,18.375q-14.438,8.313 -49.438,13.563q-3.938-17.5 -3.938-31.5zM 182.875,293.875q-30.188-9.188 -54.25-31.5q 22.313-27.563 36.75-36.313q 13.125-7.438 27.125-11.813q 3.5,14.438 3.5,29.75
q0,16.625 -13.125,49.875zM 224,188q-11.813,0 -19.906-8.313t-8.094-19.906t 8.094-19.688t 19.906-8.094t 19.906,8.094t 8.094,19.688t-8.094,19.906t-19.906,8.313zM 265.125,293.875q-13.125-33.25 -13.125-49.875q0-14.438 3.938-29.313q 13.563,3.938 26.688,11.375q 14.438,8.75 36.75,36.313q-24.063,22.313 -54.25,31.5zM 360.063,191.5q-35-5.25 -49.438-13.563q-12.25-7.438 -23.625-18.375q 10.938-9.625 23.625-17.5
q 14.438-8.313 49.438-13.563q 3.938,17.5 3.938,31.5t-3.938,31.5z" data-tags="rim" />
<glyph unicode="&#xf370;" d="M0-8l0,196 q0,11.813 8.094,19.906t 19.906,8.094l 28,0 l 112,0 l 112,0 l 112,0 l 28,0 q 11.375,0 19.688-8.094t 8.313-19.906l0-196 l-448,0 zM 280,244l0,28 q0,11.375 8.094,19.688t 19.906,8.313l 56,0 q 11.375,0 19.688-8.313t 8.313-19.688l0-28 l-112,0 zM 56,244l0,28 q0,11.375 8.094,19.688t 19.906,8.313l 56,0 q 11.813,0 19.906-8.313t 8.094-19.688l0-28 l-112,0 z" data-tags="lego" />
<glyph unicode="&#xf371;" d="M 420-64l-392,0 q-11.375,0 -19.688,8.313t-8.313,19.688l0,392 q0,11.375 8.313,19.688t 19.688,8.313l 392,0 q 11.375,0 19.688-8.094t 8.313-19.906l0-392 q0-11.813 -8.313-19.906t-19.688-8.094zM 126,328q-28.875,0 -49.438-20.563t-20.563-49.438t 20.563-49.438t 49.438-20.563t 49.438,20.563t 20.563,49.438t-20.563,49.438t-49.438,20.563zM 126,132q-28.875,0 -49.438-20.563t-20.563-49.438t 20.563-49.438t 49.438-20.563t 49.438,20.563
t 20.563,49.438t-20.563,49.438t-49.438,20.563zM 322,328q-28.875,0 -49.438-20.563t-20.563-49.438t 20.563-49.438t 49.438-20.563t 49.438,20.563t 20.563,49.438t-20.563,49.438t-49.438,20.563zM 322,132q-28.875,0 -49.438-20.563t-20.563-49.438t 20.563-49.438t 49.438-20.563t 49.438,20.563t 20.563,49.438t-20.563,49.438t-49.438,20.563zM 322,20q-17.5,0 -29.75,12.25t-12.25,29.75t 12.25,29.75t 29.75,12.25t 29.75-12.25t 12.25-29.75t-12.25-29.75t-29.75-12.25z
M 322,216q-17.5,0 -29.75,12.25t-12.25,29.75t 12.25,29.75t 29.75,12.25t 29.75-12.25t 12.25-29.75t-12.25-29.75t-29.75-12.25zM 126,20q-17.5,0 -29.75,12.25t-12.25,29.75t 12.25,29.75t 29.75,12.25t 29.75-12.25t 12.25-29.75t-12.25-29.75t-29.75-12.25zM 126,216q-17.5,0 -29.75,12.25t-12.25,29.75t 12.25,29.75t 29.75,12.25t 29.75-12.25t 12.25-29.75t-12.25-29.75t-29.75-12.25z" data-tags="stove" />
<glyph unicode="&#xf372;" d="M 364-64l-280,0 q-11.375,0 -19.688,8.313t-8.313,19.688l0,392 q0,11.375 8.094,19.688t 19.906,8.313l 280,0 q 11.813,0 19.906-8.094t 8.094-19.906l0-392 q0-11.813 -8.313-19.906t-19.688-8.094zM 224,356q-23.188,0 -39.594-16.406t-16.406-39.594t 16.406-39.594t 39.594-16.406t 39.594,16.406t 16.406,39.594t-16.406,39.594t-39.594,16.406zM 224,188q-46.375,0 -79.188-32.813
t-32.813-79.188t 32.813-79.188t 79.188-32.813t 79.188,32.813t 32.813,79.188t-32.813,79.188t-79.188,32.813zM 224,20q-23.188,0 -39.594,16.406t-16.406,39.594t 16.406,39.594t 39.594,16.406t 39.594-16.406t 16.406-39.594t-16.406-39.594t-39.594-16.406zM 224,272q-11.375,0 -19.688,8.094t-8.313,19.688t 8.313,19.906t 19.906,8.313t 19.688-8.313t 8.094-19.906t-8.313-19.688t-19.688-8.094z" data-tags="speaker" />
<glyph unicode="&#xf373;" d="M 448,86.937q0-4.813 -3.938-7.875t-10.063-3.063t-11.594,3.063t-8.094,7.875l-17.938,12.688q-18.813-7 -54.469-32.813t-42.656-30.188l-13.125-35q-1.75-3.938 -7-6.781t-11.375-2.844l-115.5,0 q-6.125,0 -11.375,2.844t-7,6.781l-7,18.375l-14.875,0 q-46.375,0 -79.188,32.813t-32.813,79.188q0,39.813 24.719,70.219t 62.781,39.156l 18.375,49q 1.75,3.938 7,6.781t 11.375,2.844l 15.75,0 l0,14 q0,5.688 -4.156,9.844
t-9.844,4.156l-14,0 l0,28 l 28,0 q 11.375,0 19.688-8.313t 8.313-19.688l0-28 l 15.75,0 q 6.125,0 11.375-2.844t 7-6.781l 17.5-46.375l 32.375,0 q 15.75,0 35-9.844t 35-22.313t 36.094-26.469t 35.656-19.688l 20.563,39.375q 2.625,4.813 8.094,7.875t 11.594,3.063t 10.063-3.063t 3.938-7.875l0-44.188 l0-0.438 l0-0.219 l0-0.219 l0-73.063 zM 84.219,160q-11.594,0 -19.906-8.313t-8.313-19.906t 8.313-19.688t 19.906-8.094t 19.688,8.094t 8.094,19.688
t-8.094,19.906t-19.688,8.313zM 168.219,160q-11.594,0 -19.906-8.313t-8.313-19.906t 8.313-19.688t 19.906-8.094t 19.688,8.094t 8.094,19.688t-8.094,19.906t-19.688,8.313zM 252.219,160q-11.594,0 -19.906-8.313t-8.313-19.906t 8.313-19.688t 19.906-8.094t 19.688,8.094t 8.094,19.688t-8.094,19.906t-19.688,8.313z" data-tags="submarine" />
<glyph unicode="&#xf374;" d="M 84-64l 34.563,240.625l-60.375,101.5q-3.5,5.25 -1.75,11.156t 7.219,8.969t 11.375,1.531t 8.969-6.781l 41.125-69.125l 14.875,104.125l 98,56l 98-56l 56-392l-308,0 zM 126,20l 85.313,0 l-68.25,115.063zM 308,300l-70,56l-70-56l-17.938-118.563l 73.938-123.813l0,256.375 q0,5.688 4.156,9.844t 9.844,4.156t 9.844-4.156t 4.156-9.844l0-294 l 98,0 z" data-tags="metronome" />
<glyph unicode="&#xf385;" d="M 437.063-53.281q-10.938-10.719 -26.25-10.719t-25.813,10.938l-379.75,377.563q-5.25,5.25 -5.25,12.906t 5.469,13.125t 13.125,5.469t 12.906-5.25l 12.688-12.688q 1.75,3.063 3.063,4.375l 36.313,36.313q 4.813,4.813 11.813,4.813t 12.031-5.031t 5.031-12.031t-5.25-11.813l-35.875-36.313q-1.313-1.313 -4.375-3.063l 5.25-5.25q 1.75,3.063 3.063,4.375l 36.313,36.313q 4.813,4.813 11.813,4.813t 12.031-5.031t 5.031-12.031t-5.25-11.813l-35.875-36.313
q-1.313-1.313 -4.375-2.625l 5.25-5.688q 1.75,3.063 3.063,4.375l 36.313,36.313q 4.813,4.813 11.813,4.813t 12.031-5.031t 5.031-12.031t-5.25-11.813l-35.875-36.313q-1.313-1.313 -4.375-2.625l 26.25-26.25q 24.5-24.5 46.594-42.656t 37.844-28t 33.469-20.781t 33.469-20.781t 37.844-28t 46.594-42.219l 52.063-52.063q 10.938-10.938 10.938-26.25t-10.938-26.031z" data-tags="toothbrush" />
<glyph unicode="&#xf384;" d="M 392-36q-31.938,0 -43.969,14.875t-12.031,41.125l0,294 q 2.625-3.5 8.531-12.906t 8.531-12.25t 8.313-7.875t 12.906-6.344t 17.719-1.313q 30.625,0 56,15.313l0-310.188 q-24.063-14.438 -56-14.438zM 154-64q-42,0 -77.438,7.438t-56,20.563t-20.563,28l0,294 q 24.063-18.375 64.969-29.531t 89.031-11.156t 89.031,11.156t 64.969,29.531l0-294 q0-14.875 -20.563-28t-56-20.563t-77.438-7.438
zM 154,272q-42,0 -77.438,7.438t-56,20.344t-20.563,28.219t 20.563,28.219t 56,20.344t 77.438,7.438t 77.438-7.438t 56-20.344t 20.563-28.219t-20.563-28.219t-56-20.344t-77.438-7.438zM 154,356q-28.875,0 -49.438-8.313t-20.563-19.906t 20.563-19.688t 49.438-8.094t 49.438,8.094t 20.563,19.688t-20.563,19.906t-49.438,8.313z" data-tags="toiletpaper" />
<glyph unicode="&#xf383;" d="M 422.188-62.25l-54.25,31.063q-7.875-5.25 -17.281-4.375t-16.406,7.875l-326.375,326.375q-7.875,7.875 -7.875,19.25t 7.875,19.25l 38.938,38.5q 7.875,8.313 19.25,8.313t 19.25-8.313l 326.375-326.375q 6.563-6.563 7.438-15.969t-3.938-17.281l 31.063-54.25q 4.813-14.438 -2.406-21.656t-21.656-2.406zM 120.75,299.125l-36.313-35.875l 19.25-18.813l 35.875,35.875zM 162.75,257.125l-36.313-35.875l 102.813-102.813l 35.875,36.313zM 288.313,131.562l-35.875-35.875
l 18.813-19.25l 35.875,36.313z" data-tags="crayon" />
<glyph unicode="&#xf37f;" d="M 448,80.812q0-11.375 -5.688-20.125t-17.938-12.25t-31.5,6.563q-3.063,3.5 -8.969,9.188t-22.094,19.25t-31.063,22.313q-14,7.875 -31.938,16.625q 9.188,17.938 9.188,37.625q0,35.875 -25.813,60.375q 14,10.938 27.125,18.813q 16.188,9.188 37.188,15.75t 33.688,8.313l 12.688,2.188q 19.25,9.625 31.5,5.906t 17.938-12.469t 5.688-20.125q-3.063-4.375 -7.656-12.25t-12.469-29.094t-7.875-39.156q0-17.5 7-36.75t 14-30.188zM 224,104
q-23.188,0 -39.594,16.406t-16.406,39.594t 16.406,39.594t 39.594,16.406t 39.594-16.406t 16.406-39.594t-16.406-39.594t-39.594-16.406zM 149.188,122.375q-17.938-8.75 -31.938-16.625q-14.875-8.75 -30.406-21.438t-23.406-21l-8.313-8.313q-19.25-10.063 -31.5-6.563t-17.938,12.25t-5.688,20.125q 3.063,4.375 7.656,11.813t 12.469,28t 7.875,37.625q0,17.938 -7,38.063t-14,31.063l-7,11.375q0,11.375 5.688,20.125
t 17.938,12.469t 31.5-5.906q 5.25-0.875 14-2.188t 31.063-8.094t 38.5-15.969q 13.125-7.438 27.125-18.375q-25.813-24.938 -25.813-60.813q0-19.688 9.188-37.625z" data-tags="bowtie" />
<glyph unicode="&#xf37e;" d="M 420,230l0-42 l-42,0 q-5.688,0 -9.844-4.156t-4.156-9.844l0-42 l-42,0 q-5.688,0 -9.844-4.156t-4.156-9.844l0-42 l-42,0 q-5.688,0 -9.844-4.156t-4.156-9.844l0-42 l-42,0 q-5.688,0 -9.844-4.156t-4.156-9.844l0-42 l-42,0 q-0.438,0 -0.875-0.219t-0.875-0.219q-51.625,31.063 -77,84.438l 22.75,0 q 5.688,0 9.844,4.156t 4.156,9.844l0,42 l 42,0 q 5.688,0 9.844,4.156
t 4.156,9.844l0,42 l 42,0 q 5.688,0 9.844,4.156t 4.156,9.844l0,42 l 42,0 q 5.688,0 9.844,4.156t 4.156,9.844l0,42 l 42,0 q 5.688,0 9.844,4.156t 4.156,9.844l0,22.75 q 53.375-25.375 84.438-77q0-0.438 -0.219-0.875t-0.219-0.875zM 252,286l0-42 l-42,0 q-5.688,0 -9.844-4.156t-4.156-9.844l0-42 l-42,0 q-5.688,0 -9.844-4.156t-4.156-9.844l0-42 l-42,0 q-5.688,0 -9.844-4.156t-4.156-9.844
l0-42 l-19.688,0 q-8.313,27.563 -8.313,56q0,31.063 9.625,60.813l-33.688,33.688q-7.875,7.875 17.938,45.938q-21,2.188 -35.438,18.156t-14.438,37.406q0,23.188 16.406,39.594t 39.594,16.406q 21.438,0 37.188-14.438t 18.375-35.875q 38.063,26.25 45.938,18.375l 33.688-33.688q 29.75,9.625 60.813,9.625q 28.438,0 56-8.313l0-19.688 l-42,0 q-5.688,0 -9.844-4.156t-4.156-9.844zM 56.219,356q-11.594,0 -19.906-8.313t-8.313-19.906t 8.313-19.688
t 19.906-8.094t 19.688,8.094t 8.094,19.688t-8.094,19.906t-19.688,8.313zM 222.25-56.563l 0.438,0.438q 1.313,3.063 1.313,6.125l0,42 l 42,0 q 5.688,0 9.844,4.156t 4.156,9.844l0,42 l 42,0 q 5.688,0 9.844,4.156t 4.156,9.844l0,42 l 42,0 q 5.688,0 9.844,4.156t 4.156,9.844l0,42 l 42,0 q 3.063,0 6.125,1.313l0,0.219 t 0.438,0.219q 2.188,1.313 4.375,3.5q 3.063-17.938 3.063-33.25q0-39.813 -15.531-76.125t-41.781-62.563t-62.563-41.781t-76.125-15.531
q-15.313,0 -33.25,3.063q 2.188,2.188 3.5,4.375z" data-tags="treeornament" />
<glyph unicode="&#xf37d;" d="M 367.719-55.25q-8.969-8.75 -21.438-8.75t-21.219,8.75l-222.25,220.938l 29.75-29.313l 64.313,21l-24.063,24.063l 195.125-194.25q 8.75-8.75 8.75-21.219t-8.969-21.219zM 239.313,114.937l-63.875-21.438l 31.938-31.938l 64.313,21.438zM 314.125,40.562l-63.875-21.438l 31.938-31.938l 64.313,21.438zM 298.156,266.75q-7.656-7.438 -17.938-7.875t-18.594,5.688l-0.875-0.875l-10.5,10.938l 21.438,63.438l-10.938,10.938l 42.875-42.438l-3.063-3.5
q 6.125-7.875 5.688-18.375t-8.094-17.938zM 217.875,306.125q-14,14.438 -35,17.063l-29.75,58.625q 45.5,8.313 85.313-15.313zM 115.063,268.062l-59.063,14.875q 6.125,38.5 33.688,66.063q 9.188,9.188 23.188,17.5l 27.125-53.813q-4.813-3.938 -7.438-6.125q-15.75-15.75 -17.5-38.5zM 164.5,189.312l-63.875-21l-10.938,10.5q-25.813,25.813 -32.813,61.25l 75.688-18.813z" data-tags="candycane" />
<glyph unicode="&#xf37c;" d="M 413.438,245.75l-80.5-47.688q 3.063-12.688 3.063-24.063q0-30.188 -17.063-55.563q 20.563-23.188 32.813-54.031t 12.25-60.594q0-16.625 -3.719-28.656t-12.906-19.25t-17.281-11.594t-24.938-5.906t-27.344-1.969t-32.375-0.438l-7.219,0 l-7.656,0 q-21.438,0 -32.156,0.438t-27.344,1.969t-24.938,5.906t-17.5,11.594t-12.906,19.25t-3.719,28.656q0,29.75 12.25,60.594t 33.25,54.031q-17.5,25.375 -17.5,55.563
q0,11.375 3.063,24.063l-80.063,47.688q-5.25,3.063 -6.563,8.75t 1.531,10.5t 8.094,6.344t 10.5-1.094l 77.438-46.375q 14.438,24.063 38.938,37.188q-24.938,21 -24.938,52.938q0,28.875 20.563,49.438t 49.656,20.563t 49.438-20.563t 20.344-49.438q0-31.938 -24.5-52.938q 24.5-13.125 38.938-37.188l 77.438,46.375q 4.813,2.625 10.281,1.094t 8.313-6.344t 1.313-10.5t-6.344-8.75zM 238.219,104q 5.906,0 9.844,4.156t 3.938,9.844t-3.938,9.844
t-9.844,4.156t-10.063-4.156t-4.156-9.844t 4.156-9.844t 10.063-4.156zM 238.219,160q 5.906,0 9.844,4.156t 3.938,9.844t-3.938,9.844t-9.844,4.156t-10.063-4.156t-4.156-9.844t 4.156-9.844t 10.063-4.156zM 210.219,328q-5.906,0 -10.063-4.156t-4.156-9.844t 4.156-9.844t 10.063-4.156t 9.844,4.156t 3.938,9.844t-3.938,9.844t-9.844,4.156zM 238.219,244
q-5.906,0 -10.063-4.156t-4.156-9.844t 4.156-9.844t 10.063-4.156t 9.844,4.156t 3.938,9.844t-3.938,9.844t-9.844,4.156zM 266,328q-5.688,0 -9.844-4.156t-4.156-9.844t 4.156-9.844t 9.844-4.156t 9.844,4.156t 4.156,9.844t-4.156,9.844t-9.844,4.156z" data-tags="snowman" />
</font>
</defs>
</svg>
